<svg xmlns="http://www.w3.org/2000/svg" viewBox="0 0 290 322"><defs><style>.cls-1{fill:#fff;}.cls-2{fill:#293549;}.cls-3{fill:#3bab5e;}.cls-4{fill:#f7f8f9;}.cls-5{fill:#424143;opacity:0.4;}.cls-5,.cls-6{isolation:isolate;}.cls-6{fill:#221f1f;opacity:0.1;}</style></defs><g id="Capa_2" data-name="Capa 2"><g id="P치gina_Inicial_-_M칩vil" data-name="P치gina Inicial - M칩vil"><path class="cls-1" d="M0,86.5A13.51,13.51,0,0,1,6.29,75.87L138.71,1.45a14.39,14.39,0,0,1,12.58,0L283.71,75.87A13.51,13.51,0,0,1,290,86.5V235.34A13.53,13.53,0,0,1,283.71,246L151.29,320.39a14.39,14.39,0,0,1-12.58,0L6.29,246A13.53,13.53,0,0,1,0,235.34Z"/><path class="cls-2" d="M69.19,54a8.79,8.79,0,0,1,8.94-8.7H212.2a8.79,8.79,0,0,1,8.94,8.7V268a8.79,8.79,0,0,1-8.94,8.7H78.13a8.79,8.79,0,0,1-8.94-8.7Z"/><rect class="cls-3" x="78.13" y="75.55" width="134.08" height="163.5"/><path class="cls-4" d="M150.63,59.44H139.54c-.33,0-.5-.16-.5-.48a.52.52,0,0,1,.5-.49h11.09a.49.49,0,1,1,0,1Z"/><path class="cls-4" d="M154.27,61.85H136.06a.52.52,0,0,1-.49-.48.43.43,0,0,1,.49-.48h18.21a.53.53,0,0,1,.5.48C154.77,61.69,154.6,61.85,154.27,61.85Z"/><path class="cls-4" d="M150.63,64.11H139.54a.52.52,0,0,1-.5-.48.53.53,0,0,1,.5-.49h11.09a.49.49,0,1,1,0,1Z"/><path class="cls-4" d="M145.17,268.84a9.5,9.5,0,0,1-9.6-9.5,9.37,9.37,0,0,1,9.6-9.34,9.49,9.49,0,0,1,9.6,9.34A9.62,9.62,0,0,1,145.17,268.84Zm0-18a8.54,8.54,0,1,0,8.77,8.54A8.72,8.72,0,0,0,145.17,250.8Z"/><rect class="cls-4" x="89.22" y="84.25" width="111.73" height="30.77"/><rect class="cls-5" x="128.45" y="125.16" width="72.67" height="30.77"/><rect class="cls-5" x="89.22" y="124.84" width="31.95" height="31.09"/><rect class="cls-5" x="128.45" y="163.5" width="72.67" height="30.77"/><rect class="cls-5" x="89.22" y="163.17" width="31.95" height="31.09"/><rect class="cls-5" x="128.45" y="201.67" width="72.67" height="30.77"/><rect class="cls-5" x="89.22" y="201.51" width="31.95" height="31.09"/><path class="cls-6" d="M283.71,75.87,151.12,1.45a12,12,0,0,0-6-1.45V322a12,12,0,0,0,6-1.45l132.42-74.42a13.51,13.51,0,0,0,6.29-10.63V86.5C290,82.63,287.19,77.8,283.71,75.87Z"/></g></g></svg>