<svg xmlns="http://www.w3.org/2000/svg" viewBox="0 0 148.06 30.1"><defs><style>.cls-1{fill:#fff;}.cls-2{fill:#12afaf;}</style></defs><g id="Capa_2" data-name="Capa 2"><g id="P치gina_Inicial_-_M칩vil" data-name="P치gina Inicial - M칩vil"><path class="cls-1" d="M47.26,24.76l-.13-20.2,3.6,0,3.15,7.88c.61,1.59,1.63,4.19,2.24,5.88h.1c-.11-2.1-.44-5.69-.46-9.39l0-4.4,3.5,0,.13,20.2-3.6,0L52.61,17c-.81-2-1.42-4-2-6.08h-.1c.12,2,.24,5.2.26,9.2l0,4.6-3.5,0Z"/><path class="cls-1" d="M71.3,15.71l-4.6,0,0,5.5,5.2,0,0,3.4-9.2.06-.13-20.2,8.8,0,0,3.4-4.9,0,0,4.7,4.6,0,.12,3.2Z"/><path class="cls-1" d="M76.76,8l-3.6,0,0-3.6,11.1-.07,0,3.6-3.6,0,.1,16.6-3.9,0Z"/><path class="cls-1" d="M89.06,24.5,85.43,4.22l4.1,0,1,8.1c.32,2.3.53,4.6.75,7.09h.1c.28-2.5.67-4.7,1-7.1l1.35-8.11,3.2,0,1.45,8c.42,2.3.73,4.49,1,7.19h.1c.28-2.6.47-4.8.75-7.2l1-8,3.8,0-3.47,20.32-4.1,0-1.24-6.6c-.31-1.9-.63-4.19-.94-6.59h-.1c-.39,2.4-.67,4.7-1.06,6.71l-1.36,6.6-3.8-.07Z"/><path class="cls-1" d="M119.29,13.81c0,7.6-2.63,10.72-6.53,10.74s-6.43-4.86-6.47-10.36,2.14-10.31,6.64-10.34S119.26,9.21,119.29,13.81Zm-8.89.46c0,4.6.94,6.89,2.54,6.88s2.28-3,2.25-7.11-.54-6.8-2.34-6.79S110.37,9.87,110.4,14.27Z"/><path class="cls-1" d="M121.73,4.39A21.61,21.61,0,0,1,126,4c2.2,0,4.1.27,5.41,1.46a5.43,5.43,0,0,1,1.63,4.19A5.28,5.28,0,0,1,130,14.74h0c1.4.49,2.11,1.79,2.52,4a34.91,34.91,0,0,0,1.34,5.49l-4.1,0a27.44,27.44,0,0,1-1-4.8c-.42-2.5-1-3.19-2.32-3.18h-.6l0,8.1-3.9,0-.23-20Zm4,8.78h.7c1.7,0,2.69-1.42,2.68-3.22s-.72-2.9-2.52-3h-.9l0,6Z"/><path class="cls-1" d="M135.83,4l3.9,0,.06,9.1h.1l1-2.6L143.53,4l4.3,0-4.44,8.83,4.67,11.47-4.3,0-2.95-8.38-.89,1.7,0,6.7-4,0L135.83,4Z"/><g id="Logo"><g id="xamagon"><path id="Logo-2" class="cls-2" d="M9.81.09a2.79,2.79,0,0,0-2.3,1.32L.29,14.05a3,3,0,0,0,0,2.6L7.69,29A2.56,2.56,0,0,0,10,30.09L24.59,30a2.59,2.59,0,0,0,2.29-1.11l7.23-12.55a2.44,2.44,0,0,0,0-2.6L26.71,1.29A2.74,2.74,0,0,0,24.41,0ZM10,7.19l2.6,0,.3.3,4.35,7.58v.2h0l4.25-7.73.3-.3,2.5,0c.2.1.4.4.3.6L20.4,15.33l4.25,7.37c.1.2-.1.4-.3.5h0l-2.5,0-.3-.2L17.2,15.55h-.1l-4.25,7.52-.3.2-2.5,0c-.2,0-.3,0-.4-.2a.37.37,0,0,1,.1-.3l4.15-7.42L9.65,7.89a.37.37,0,0,1,.2-.5h0Z"/></g></g></g></g></svg>