<svg xmlns="http://www.w3.org/2000/svg" viewBox="0 0 106 35"><defs><style>.cls-1{fill:#fff;}.cls-2{fill:#fafbfb;}.cls-3{fill:#fafaf9;}.cls-4{fill:#efeeed;}.cls-5{fill:#010100;}.cls-6{fill:#010101;}.cls-7{fill:#020202;}.cls-8{fill:#151515;}.cls-9{fill:#010102;}.cls-10{fill:#060606;}.cls-11{fill:#231f20;}.cls-12{fill:#e7e5e5;}.cls-13{fill:#f5f5f5;}.cls-14{fill:#f6f6f5;}.cls-15{fill:#9a999a;}</style></defs><g id="Capa_2" data-name="Capa 2"><g id="Pagina_inicia_Movil" data-name="Pagina inicia Movil"><path class="cls-1" d="M58.86,13.85c-.16,1.71-.31,3.3-.44,4.89-.11,1.23-.17,2.45-.26,3.68-.09,1-.39,1.3-1.52,1.28-1.47,0-2.93-.15-4.4-.07-1,.06-1.3-.29-1.21-1.37.26-3.21.54-6.41.81-9.61.3-3.46.59-6.92.9-10.37.12-1.36.32-1.5,1.71-1.51,1.6,0,3.2-.06,4.8-.13a1.42,1.42,0,0,1,1.67,1.11c1,3.25,2.2,6.41,3.08,9.68.08.28.13.6.54.55s.4-.38.47-.64c.76-3.1,1.81-6.13,2.8-9.17.43-1.31.62-1.4,2.07-1.4S72.94.7,74.47.67,76,.73,76.15,2.05c.36,4.18.7,8.36,1,12.53.22,2.58.45,5.16.67,7.73.11,1.26-.09,1.44-1.4,1.44h-4c-1.38,0-1.49-.07-1.59-1.34-.22-2.61-.42-5.22-.64-7.82,0-.25.19-.66-.28-.68-.32,0-.29.36-.36.59-.89,2.71-1.79,5.42-2.65,8.13a1.39,1.39,0,0,1-1.66,1.13,8.81,8.81,0,0,0-.89,0c-1.61,0-2-.3-2.53-1.77-.83-2.42-1.62-4.86-2.43-7.3A1.05,1.05,0,0,0,58.86,13.85Z"/><path class="cls-1" d="M93.2,21.91a35.82,35.82,0,0,1-3.51-3.23c-.1-.1-.23-.31-.19-.4.67-1.57-1-1.94-1.7-2.58s-1.27.42-1.82.86-.29.76.1,1.12.89.84,1.34,1.27.64.59,1.11.22c.29-.22.49,0,.69.17L92.41,22c-.48.5-1.17.22-1,1,.06.4-.93.95-1.53,1.51.08-.4.35-.75-.27-.82a3.42,3.42,0,0,1-1-.32.93.93,0,0,0-1.29.24c-.27.35-.56.48-.71-.11-.09-.34-.42-.48-.69-.65-.89-.58-1.55-1.46-2.43-1.94-1.34-.74-1.43-2.05-2-3.11a9.21,9.21,0,0,1-1.15-3.69A1.63,1.63,0,0,0,79.8,13a.57.57,0,0,1-.14-.7C80.57,10.25,80.83,8,81.83,6,82.57,4.46,84.05,3.9,85,2.72c.48-.6,1.47-.76,1.74-1.61a.43.43,0,0,1,.33-.19c2,0,3.79-1,5.83-.91a17.25,17.25,0,0,1,4.3.7,2,2,0,0,0,1.44.2c.24-.1.44,0,.6.23a24.85,24.85,0,0,0,4.32,3.65.66.66,0,0,1,.29.35c.55,2.18,1.67,4.18,2.11,6.43.25,1.31-.35,2.26-.41,3.39a10.79,10.79,0,0,1-2,5,10.22,10.22,0,0,1-3.34,2.84c-.2.12-.48.21-.56.38-.39.82-.81.88-1.38.15-.11-.14-.28-.1-.45,0s-.44.13-.64.24a2,2,0,0,1-2.85-.71c-.19-.3-.57-.3-.74-.58s0-.25.12-.35a18.68,18.68,0,0,0,2.54-2.24,1.76,1.76,0,0,1,1.39-.59A3.91,3.91,0,0,0,100,17.26c.12-.69-.54-1-.94-1.34a.64.64,0,0,0-1,0c-.68.71-1.79,1.17-1.58,2.43.06.36-.29.61-.54.86-.85.84-1.77,1.61-2.56,2.5A1.19,1.19,0,0,1,93.2,21.91Z"/><path class="cls-1" d="M20.53,23.69c-2.16,0-4.26,0-6.35,0A1.17,1.17,0,0,1,13.1,23c-1.23-1.88-2.47-3.74-3.71-5.61a2.11,2.11,0,0,0-.86-.89c-.92-.43-1.59-.09-1.63.88-.06,1.76-.12,3.53-.11,5.29,0,.8-.31,1-1.11,1-1.47,0-2.94-.07-4.4,0-1,0-1.29-.28-1.28-1.18C.06,17.41.08,12.27.12,7.13c0-1.55,0-3.09,0-4.64,0-.85.31-1.37,1.32-1.39a101.08,101.08,0,0,1,12.79.15A7.35,7.35,0,0,1,20.52,7.1a7.31,7.31,0,0,1-3.82,7.72c-1.44.74-1.45.79-.55,2.11,1.46,2.14,2.89,4.3,4.34,6.45C20.52,23.43,20.5,23.5,20.53,23.69Z"/><path class="cls-1" d="M29.24,24.4a2,2,0,0,0-1.18-1.28A14.3,14.3,0,0,1,25,20.57a9.3,9.3,0,0,1-1.55-3.29,26.48,26.48,0,0,0-.74-2.73c-.65-1.33-.06-2.49.13-3.72A11.41,11.41,0,0,1,24.16,7a1.78,1.78,0,0,0,.41-1.23.43.43,0,0,1,.24-.49c1.51-.66,2.29-2.17,3.77-2.87a1.13,1.13,0,0,0,.55-.65c.07-.19.19-.39.4-.37C31,1.55,32.28.75,33.69.58a13.88,13.88,0,0,1,5.81.52,3.09,3.09,0,0,0,1.64.28.47.47,0,0,1,.54.16c.78,1.34,2.26,2,3.38,3,2,1.78,2.43,4.13,3.11,6.42.16.57.07,1.2.49,1.71a.57.57,0,0,1,.05.54,57,57,0,0,1-2.44,7.12c-.22.48-.76.39-1,.7-.94,1.28-2.62,1.82-3.47,3.18a.26.26,0,0,1-.41.09c-.82-.54-.75,0-.79.54-.1,1.25.1,2.49,0,3.74a1.39,1.39,0,0,0,1,1.64c.56.14.32.46,0,.64a10.91,10.91,0,0,1-1.95.94c-2.93.83-5.74,1.95-8.62,2.92-1.82.61-3.54.06-5.31-.1-.17,0-.51-.18-.41-.32.34-.48.08-1.2.77-1.53a9.09,9.09,0,0,0,2.45-1.6,15.51,15.51,0,0,0,1.51-1.63c.45-.58,0-1.09,0-1.61s1,0,1.27-.69a2.45,2.45,0,0,0-.88-3.16C29.86,23.73,29.71,24.34,29.24,24.4Z"/><path class="cls-2" d="M69.65,28.26c.46-.83.86-1.47,1.16-2.16s.83-.53,1.33-.5c.69,0,.38.57.38.87,0,1.35,0,2.71,0,4.06,0,.53-.21.65-.71.62s-.88.07-.82-.6,0-1.18,0-1.91a2.55,2.55,0,0,0-.75,1.09c-.15.26-.27.48-.65.47a.68.68,0,0,1-.64-.49,2.37,2.37,0,0,0-.75-1c0,.63,0,1.26,0,1.89s-.28.54-.68.51-.81.12-.8-.51c0-1.51,0-3,0-4.54,0-.26,0-.53.39-.5s.94-.19,1.22.37C68.76,26.69,69.18,27.39,69.65,28.26Z"/><path class="cls-3" d="M61.25,31c-1.13.32-1.78,0-2-1a5,5,0,0,0-.38-.77c-.09-.2-.17-.45-.46-.41s-.23.33-.24.53,0,.51,0,.76c0,.47.2,1-.72,1s-.77-.42-.77-.94c0-1.32,0-2.65,0-4,0-.54.16-.73.73-.69s1.4,0,2.09,0a1.52,1.52,0,0,1,1.47,1.09,1.39,1.39,0,0,1-.48,1.7c-.47.29-.29.52-.12.83C60.62,29.82,60.92,30.41,61.25,31Z"/><path class="cls-3" d="M51.56,28.26V27c0-1.45,0-1.46,1.58-1.45a8,8,0,0,1,1.1,0,1.49,1.49,0,0,1,1.5,1.56c0,.79,0,1.57,0,2.36a1.46,1.46,0,0,1-1.42,1.54,21.74,21.74,0,0,1-2.29.06c-.41,0-.48-.18-.47-.52C51.57,29.83,51.56,29.05,51.56,28.26Z"/><path class="cls-3" d="M75.38,25.49a2.7,2.7,0,0,1,1.86.66c.29.31.57.85.22,1.06s-1.09.46-1.39-.25a.68.68,0,0,0-.79-.41.56.56,0,0,0-.61.51.5.5,0,0,0,.41.57c.44.14.89.25,1.34.36a1.38,1.38,0,0,1,1.15,1.54,1.53,1.53,0,0,1-1.29,1.58,3.1,3.1,0,0,1-2.65-.41,1.07,1.07,0,0,1-.47-1,.29.29,0,0,1,.39-.3c.38.09.94-.32,1.11.42.11.48.64.36,1,.32s.38-.3.4-.56a.64.64,0,0,0-.57-.76q-.53-.12-1.05-.27c-.83-.24-1.34-.7-1.24-1.58s.68-1.24,1.5-1.39Z"/><path class="cls-2" d="M61.71,27.79V26.47c0-.45-.17-.92.69-.91s.82.36.8.92c0,.91,0,1.82,0,2.73,0,.42-.15.95.59,1s.64-.49.64-.92c0-1,0-2,0-3,0-.58.25-.65.76-.66s.75.14.73.68c-.05,1.13,0,2.27,0,3.4s-.81,1.58-2.06,1.59-2.06-.61-2.1-1.56C61.69,29.05,61.71,28.42,61.71,27.79Z"/><path class="cls-4" d="M92.35,22.8c1,.32,1.38,1.16,2.08,1.75a2.86,2.86,0,0,1-2.87.05C91.68,24,93.22,23.94,92.35,22.8Z"/><path class="cls-5" d="M93.07,21.82c0-.09.14-.1.15-.19.33-.06.6,0,.62.37l-.24.23Z"/><path class="cls-6" d="M93,7.39A4.8,4.8,0,0,1,97.17,9.9a5.19,5.19,0,0,1-.63,6A4.55,4.55,0,0,1,90,16.3,5,5,0,0,1,88.44,11,4.62,4.62,0,0,1,92,7.57,8.12,8.12,0,0,1,93,7.39Z"/><path class="cls-7" d="M93.84,22l-.62-.37a23.37,23.37,0,0,1,2.72-2.73c.28-.28.56-.49.3-.95a.75.75,0,0,1,.28-.93c.25-.21.48-.43.71-.66,1.37-1.3,1.65-1.29,2.9.08a.79.79,0,0,1-.06,1.3c-.48.44-.95.89-1.41,1.34-.22.21-.51.46-.77.32-.79-.41-1.12.16-1.54.56-.62.57-1.23,1.15-1.84,1.73C94.32,21.87,94.15,22.07,93.84,22Z"/><path class="cls-8" d="M98.18,3.44a4.31,4.31,0,0,1-1.5-.14,10.4,10.4,0,0,0-6.61-.41,5.63,5.63,0,0,1-.68.17c-.25,0-.59.13-.66-.21s.26-.3.47-.38A10.81,10.81,0,0,1,98.18,3.44Z"/><path class="cls-5" d="M103.17,15.43c-.27-1.5.15-2.9-.06-4.32s-1-2.63-1.22-4C103.73,8.37,104.54,13.4,103.17,15.43Z"/><path class="cls-5" d="M83.05,8.27A13.86,13.86,0,0,0,82.22,13a7.59,7.59,0,0,1,.16,2.52.88.88,0,0,1-.56-.73,10.09,10.09,0,0,1,.48-6.09c.09-.24.15-.56.5-.65S83.15,8,83.05,8.27Z"/><path class="cls-6" d="M101.62,18.57a19.93,19.93,0,0,1-2,2.15c-.78.66-1.58.45-2.35.7,1.55-.53,2.51-1.74,3.62-2.76.15-.14.26-.27.48-.26S101.62,18.42,101.62,18.57Z"/><path class="cls-5" d="M83.05,8.27,82.8,8a5,5,0,0,1,1.46-2.42c.16-.17.33-.36.58-.18s0,.37-.12.53Z"/><path class="cls-5" d="M84.6,18.8c.7.71,1.62,1.25,2,2.24-1-.52-2.09-1-2.28-2.24A.22.22,0,0,1,84.6,18.8Z"/><path class="cls-6" d="M86.62,4.3c0,.44-.45.47-.75.64s-.35-.14-.36-.28c0-.51.54-.44.81-.66C86.41,3.93,86.63,4,86.62,4.3Z"/><path class="cls-6" d="M100.17,4.6c-.53.61-.86.18-1.21-.11-.13-.11-.23-.34-.12-.39C99.43,3.9,99.7,4.43,100.17,4.6Z"/><path class="cls-6" d="M101.62,18.57l-.23-.17.86-1.3c.22,0,.28.08.21.27A1.49,1.49,0,0,1,101.62,18.57Z"/><path class="cls-5" d="M83.85,18.22c-.24-.3-.78-.79-.54-.91.44-.22.41.5.72.7C84.14,18.22,84,18.23,83.85,18.22Z"/><path class="cls-5" d="M83.85,18.22,84,18a1.93,1.93,0,0,1,.57.79h-.3Z"/><path class="cls-6" d="M102.46,17.37l-.21-.27.27-.61C102.69,16.87,102.72,17.12,102.46,17.37Z"/><path class="cls-6" d="M7,9.39a11.51,11.51,0,0,1,.15-2.34,1.06,1.06,0,0,1,1.07-.94,19.75,19.75,0,0,1,3,.07A2.61,2.61,0,0,1,13.6,9,2.68,2.68,0,0,1,11,11.75a29.49,29.49,0,0,1-3.39,0A.63.63,0,0,1,7,11C7,10.46,7,9.93,7,9.39Z"/><path class="cls-6" d="M24.15,11.37A10.29,10.29,0,0,1,28.8,3.9,11.61,11.61,0,0,1,45.58,7.67a2,2,0,0,1,.26.89.32.32,0,0,1-.22.12s-.06,0-.09,0-.17,0-.14,0c.26.53.4,1.1.71,1.6.24.67,0,1.38.28,2a1.4,1.4,0,0,1,.06.28,4.18,4.18,0,0,1,0,1.17A3.1,3.1,0,0,0,46.26,15a2.78,2.78,0,0,0,.15.75,5.49,5.49,0,0,1-1.23,3c-.18.07-.25,0-.3-.17a.57.57,0,0,1,.15-.47c-.33.33-.44.64-.67.88s-.3.31-.44.47A5.8,5.8,0,0,1,42.32,21a14.71,14.71,0,0,1-1.3.87.24.24,0,0,1-.24-.07.87.87,0,0,1-.07-.17c-.12-.53.27-1.15-.1-1.56s-1-.14-1.52-.13a.45.45,0,0,1-.24-.07c0-.84-.92-.95-1.27-1.55,2.58-1.57,3.55-3.81,2.79-6.63A5.24,5.24,0,0,0,35,7.84a5.38,5.38,0,0,0-4.87,4.67c-.36,2.92,1.07,5.08,4.06,6.14.23.08.56.09.39.48s-.1.65-.59.6A3.88,3.88,0,0,1,33,19.49c-1.12-.43-1.54-.14-1.48,1,0,.6.06,1.2.07,1.8,0,1-.19,1.13-1.13.66a11.12,11.12,0,0,1-5.65-6,5.34,5.34,0,0,1-.61-2.44A13.48,13.48,0,0,1,24.15,11.37Z"/><path class="cls-9" d="M36,17.84a4.52,4.52,0,0,1-4.33-6.7,4.23,4.23,0,0,1,4.21-2.31,4.44,4.44,0,0,1,3.74,3.91,4.81,4.81,0,0,1-2,4.5.7.7,0,0,1-1.22-.1c-.31-.4-.59-.83-.87-1.26a1.13,1.13,0,0,1,0-1.32,1.2,1.2,0,0,0-.23-1.64,1.37,1.37,0,0,0-1.58-.16,1.65,1.65,0,0,0-.83,1.61.73.73,0,0,0,.76.75c1.46-.11,2.06.76,2.55,1.81a1.94,1.94,0,0,1,.18.51C36.29,17.65,36.12,17.75,36,17.84Z"/><path class="cls-10" d="M36.56,24.28c-1-.05-1.44.79-2.21,1.1-.45.17-.89.7-1.31.49s-.14-.82-.16-1.25c0-1.1-.05-2.21,0-3.31,0-.34-.25-.84.29-1s1.39-.15,1.59.25c.41.83,1.21.74,1.85,1.05C36.72,22.52,37.23,23.4,36.56,24.28Z"/><path class="cls-2" d="M36,17.12a1.87,1.87,0,0,1-.35-.46,1.55,1.55,0,0,0-1.87-1.21,1.17,1.17,0,0,1-1.31-1c-.13-.69.58-1.94,1.17-2s1.42-.21,1.94.42a1.46,1.46,0,0,1,.12,1.92c-.34.44-.23.64,0,1a12.18,12.18,0,0,1,.75,1.17c.26.61.63.62,1.13.33-.32.68-1.09.34-1.6.6l.21-.36A.31.31,0,0,0,36,17.12Z"/><path class="cls-5" d="M37.2,22c.51,0,1-.13,1.38.37a.48.48,0,0,1,.12.43,4.18,4.18,0,0,0-.11,2.45,3.23,3.23,0,0,1,0,1.2,2,2,0,0,0,0,1.29c0,.36.12.73-.22,1-.41.07-.87-.11-1.3.26-.08-.64-.5-1.16-.09-1.81s-.08-1.34.27-1.91,0-.72-.28-1A3.09,3.09,0,0,1,37.2,22Z"/><path class="cls-5" d="M38.58,22.72v-.33c.12-.18.21-.41.49-.39s.26.24.26.42c0,1.46,0,2.93,0,4.4a.59.59,0,0,1-.36.52c-.53,0-.26-.47-.39-.71a8,8,0,0,1,0-1.47A5.29,5.29,0,0,0,38.58,22.72Z"/><path class="cls-6" d="M45.58,8.58l.26,0c.69.8.66,1.84,1,2.76a12.85,12.85,0,0,1,.07,2,6.44,6.44,0,0,1-.06,1.24c-.37.35,0,.92-.42,1.25a.56.56,0,0,1-.42-.58c.24-.19.19-.45.2-.69a1.09,1.09,0,0,1,.1-.53,4.64,4.64,0,0,0-.06-2.28,2.09,2.09,0,0,1,0-.43,2.37,2.37,0,0,0-.36-1.34C45.8,9.47,45.27,9.09,45.58,8.58Z"/><path class="cls-5" d="M40.78,21.82l.29,0A3.79,3.79,0,0,0,42.3,21c.46-.19.71-.69,1.26-.74a.4.4,0,0,1,.27.28,17.57,17.57,0,0,1-2.75,2.08c-.12.09-.36.14-.43,0A.68.68,0,0,1,40.78,21.82Z"/><path class="cls-5" d="M39.36,27.75c.17.5-.21.93-.21,1.42a.56.56,0,0,1-.63.55c-.44-.09-.12-.46-.14-.7.27-.43-.06-.95.21-1.38A.64.64,0,0,1,39.36,27.75Z"/><path class="cls-1" d="M37.2,22c-.26.74.16,1.54-.23,2.27h-.41V21.64C36.88,21.61,36.67,22.38,37.2,22Z"/><path class="cls-5" d="M43.83,20.52l-.26-.26c-.09-.22,0-.39.15-.57a1.85,1.85,0,0,1,.46-.58c.33-.08.36-.6.81-.5l.19.18A4.82,4.82,0,0,1,43.83,20.52Z"/><path class="cls-6" d="M38.76,20.69c.4,0,.62.08.59.46,0,.2-.18.59-.28.42-.26-.46-.93,0-1-.44S38.4,20.62,38.76,20.69Z"/><path class="cls-1" d="M39.36,27.75a.77.77,0,0,0-.72,0,.26.26,0,0,1-.32,0,.84.84,0,0,1,0-1.19c.24-.13.31.11.45.2s-.28.5.18.6Z"/><path class="cls-1" d="M24.15,11.37v3.11A5.58,5.58,0,0,1,24.15,11.37Z"/><path class="cls-6" d="M46.8,13.31l0-2a4,4,0,0,1,.17,2C46.93,13.4,46.87,13.39,46.8,13.31Z"/><path class="cls-1" d="M38.32,27.73h.32c-.06.44.21.93-.26,1.3v-.25Z"/><path class="cls-6" d="M46.8,13.31H47a2.11,2.11,0,0,1-.16,1.21Z"/><path class="cls-11" d="M58.09,27.1c-.09-.47.16-.6.67-.58s.77.27.77.76-.37.63-.85.66C58,28,58.1,27.53,58.09,27.1Z"/><path class="cls-11" d="M53,28.35c0-.41,0-.82,0-1.22s0-.63.51-.6.73.13.74.58c0,.84,0,1.69,0,2.54,0,.46-.37.52-.76.54s-.49-.3-.48-.62Z"/><path class="cls-12" d="M31.72,3.51c2-1.26,6.87-1.09,8.4.35A13.85,13.85,0,0,0,31.72,3.51Z"/><path class="cls-1" d="M24.56,11.6c-.06-.72.42-1.31.57-2,.3.15.15.43.22.65a12.23,12.23,0,0,0-.38,4c-.21.21.2.67-.34.75l-.06-.38A11,11,0,0,1,24.56,11.6Z"/><path class="cls-1" d="M45.58,8.58,46,9.89a.27.27,0,0,1,0,.4c-.69-.56-.75-1.38-1-2.12C45.37,8.1,45.37,8.47,45.58,8.58Z"/><path class="cls-1" d="M43.81,19.76l-.24.5-1.17.82c-.2.07-.24,0-.21-.19l1.6-1.5A.27.27,0,0,1,43.81,19.76Z"/><path class="cls-1" d="M27.39,6.25c-.08.83-.8,1.14-1.08,1.71,0,0-.19.06-.26,0s-.11-.22,0-.34A4,4,0,0,1,27.39,6.25Z"/><path class="cls-1" d="M45,18.61c-.28.17-.39.57-.8.55-.06,0-.08-.07-.06-.11s0-.06.06-.06l1-1.62C45.44,18,45.07,18.25,45,18.61Z"/><path class="cls-1" d="M46,10.29v-.4a3.77,3.77,0,0,1,.37,1.35c-.21.37.27.85-.21,1.17A5.23,5.23,0,0,1,46,10.29Z"/><path class="cls-1" d="M42.19,20.89l.21.19c-.38.33-.68.83-1.33.72C41.3,21.33,41.82,21.19,42.19,20.89Z"/><path class="cls-1" d="M24.56,11.6v3A4.76,4.76,0,0,1,24.56,11.6Z"/><path class="cls-1" d="M25.35,10.27c-.22-.17-.17-.42-.22-.65l.32-.91.24.08A3.09,3.09,0,0,1,25.35,10.27Z"/><path class="cls-1" d="M25,14.41c.25.39.14.82.19,1.31-.35-.08-.67-.09-.59-.53C25,15.05,24.76,14.62,25,14.41Z"/><path class="cls-1" d="M46.4,14.08l0,.54c-.51-.2-.2-.55-.18-.85V12.55a.19.19,0,0,1,.29.06A4.27,4.27,0,0,1,46.4,14.08Z"/><path class="cls-1" d="M46.18,13.77c0,.29-.08.61.18.85,0,.28.12.59-.37.57A2.75,2.75,0,0,1,46.18,13.77Z"/><path class="cls-1" d="M44,6.83c-.51-.06-.56-.34-.67-.66C43.71,6.23,43.86,6.43,44,6.83Z"/><path class="cls-13" d="M28,20.26c-.39.13-.51-.13-.7-.43.48-.1.59.16.66.45Z"/><path class="cls-14" d="M28,20.28c.27,0,.51.12.56.41,0,0-.11.17-.16.16-.34-.07-.49-.26-.37-.59Z"/><path class="cls-1" d="M46.39,12.55h-.21a.1.1,0,0,1,0-.14c.16-.37-.13-.82.21-1.17l0,.35A1.15,1.15,0,0,1,46.39,12.55Z"/><path class="cls-1" d="M25,14.41c-.16.25.17.72-.4.78l0-.18c.3-.18,0-.58.34-.75A.14.14,0,0,1,25,14.41Z"/><path class="cls-1" d="M27.67,6.26a.67.67,0,0,1,.56-.48C28.17,6.13,28,6.19,27.67,6.26Z"/><path class="cls-1" d="M44.19,19a.48.48,0,0,1,0,.17l-.38.6,0-.37Z"/><path class="cls-15" d="M26.35,18.09c-.32,0-.56-.17-.5-.32s.3-.07.42.06A.8.8,0,0,1,26.35,18.09Z"/><path class="cls-1" d="M36,17.12a.17.17,0,0,1,.3,0c.11.15.06.28-.1.37A.31.31,0,0,1,36,17.12Z"/><path class="cls-1" d="M38.58,22.72c.12,0,.31,0,.31.12a5.78,5.78,0,0,1-.12,2.38.36.36,0,0,1-.45,0C38.19,24.39,37.79,23.5,38.58,22.72Z"/><path class="cls-1" d="M38.32,25.26l.45,0a3.13,3.13,0,0,0,0,1.52l-.45-.2Z"/><path class="cls-1" d="M46.39,12.55v-1a3.56,3.56,0,0,1,0,2.49Z"/></g></g></svg>