<svg xmlns="http://www.w3.org/2000/svg" viewBox="0 0 346.58 316.02"><defs><style>.cls-1{fill:#d1ecfb;}.cls-2{fill:#57d357;}.cls-3{fill:#c1e2de;}.cls-4{fill:#0e303f;}.cls-5{fill:#fff;}.cls-6{fill:#103754;}.cls-7{fill:#b7c9cb;}.cls-8{fill:#fafbfb;}.cls-9{fill:#fafaf9;}.cls-10{fill:#efeeed;}.cls-11{fill:#010100;}.cls-12{fill:#010101;}.cls-13{fill:#020202;}.cls-14{fill:#151515;}.cls-15{fill:#010102;}.cls-16{fill:#060606;}.cls-17{fill:#231f20;}.cls-18{fill:#e7e5e5;}.cls-19{fill:#f5f5f5;}.cls-20{fill:#f6f6f5;}.cls-21{fill:#9a999a;}</style></defs><g id="Capa_2" data-name="Capa 2"><g id="Pagina_inicial_Escritorio" data-name="Pagina inicial Escritorio"><path class="cls-1" d="M188.45,0c-87.12,0-158,70.88-158,158s70.89,158,158,158,158.13-70.77,158.13-157.9S275.58,0,188.45,0Z"/><path class="cls-2" d="M338.17,201.06c-2,0-4.77,1-4.77,1.71s-2.84,1.93-3.86,2.38-2.73,3.3-3.18,4.21-2.73.68-3.52,1-2.62,1.82-2.62,2.61-.45.68-1-.23l-1.13,1.14-1.37,1.48c-.79,2.38-3.29,5.45-4.2,5.68s-1,4.43-1,6.13a8.08,8.08,0,0,0,1.47,4.66v1.36l.23,2.73a4.79,4.79,0,0,0,1.59,4.31c.46.34,4.32-.68,5.8-1l2-.79a161,161,0,0,0,16.24-37.72A1.11,1.11,0,0,1,338.17,201.06Z"/><path class="cls-2" d="M77.24,205c-.22.45,2.62,3.29,3.64,4.32a29.43,29.43,0,0,1,3.86,7.27,13,13,0,0,1,0,4.65,8.18,8.18,0,0,0,.57,2.39c.11.57-.91,5.11-.57,7s-2.16,7.61-2,10.57,1.36,6.58,1.81,6.36.69,2.61-.11,3-1.93,2.61-1.36,2.73,0,2.38.11,3.29.91,6.93,1,8.41,2.28,5.11,2.73,6.36.91,3.52,1,3.86l.34.8a10.3,10.3,0,0,1,2.27,1c.46.34,3.87.11,5-.12s.12-1.25-.34-1.7-.91-3.18-1.47-3.41-.8-3.63-.35-4.43,2.5-1.93,2.73-2.61.23-3.52-.23-4,.12-4-.22-5.79,3.06-3.41,3.29-4.77,4-2.95,4.77-3.64,1.59-4.77,1.14-5.56,1.36-1.59,2.16-1.59a12.12,12.12,0,0,0,2-.57c.23,0,1.25-1.82,1.7-2.16s1.59-4.66,2.5-5.34a7.67,7.67,0,0,0,1.71-4,10.56,10.56,0,0,1,1.93-3.64c.45-.68,4-2.27,4.66-2.5s1.59-5.9,1.81-7.95a46.71,46.71,0,0,1,1.37-5.45c0-.68,1.13-1.25,1.36-1.48s1-2.84,1.59-3.41,2.5-3.06,2.5-3.63a18.19,18.19,0,0,1,.68-3.18v-3.52c-.57-1.71-2.5-3.86-3-3.3s-2.62-1.47-3.75-1.93a18.89,18.89,0,0,0-4.55-.68c-.68,0-3.06-1.93-4.2-2.27a38.5,38.5,0,0,1-4.32-1.14c-.45-.34-1.13-4.43-3.4-5.79s-6.14-4.54-6.59-5.68-4.66-3.52-6-4.32-3.3-.91-3.52-.57-1.93-2.27-2.73-2.95-3.41-1.25-3.52-.68-1.82.23-2.16-.23-1.7.23-2.39.46S78,167,77,167.78s-2.16-.68-2.84-1a6.77,6.77,0,0,0-3.75,1c-.68.45-2.16-3.41-1.82-5.23s-1.59-5.33-3.18-5.45-1.93-3.86-1.7-5.22S61,149.6,60.2,149.49s-2.61,1.82-3,2.84-7.27-1.25-6.47-5.45,4.08-8.52,4.88-9,5.23-.68,6.25-.11a1.82,1.82,0,0,0,2-.23,13.92,13.92,0,0,1,4.89.46c1,.45,2.61,4.65,3.75,5.11s1.47-2.73,1.7-3.52a10.16,10.16,0,0,0-.8-3.3c-.22-.56,1.82-5.68,3.53-6.47s3.52-3.75,3.29-4.2,1.36-.91,1.7-1.14,0-4.32.57-5.23a19.77,19.77,0,0,1,4.89-3.18c1-.45,1.7-3,1.36-3.52s2.61-2.95,4.2-3.52,2.84.91,2.5,1,2.39-1.25,3.3-1.82,0-2.61-.69-3.18-.22-2.72.57-2.95a2.84,2.84,0,0,0,1.25-2.5c-.23-.34,3.41.34,4.77-.68s.34,2.39-.57,3.86a1.6,1.6,0,0,0,.4,2.22,1.65,1.65,0,0,0,1,.28,1.47,1.47,0,0,1,1.47,1.14c.12.34,1.48-.46,2.39,0s1.48-1.25,1.48-2-2.16-2.27-2.5-3.29a52.19,52.19,0,0,1-.46-7.39c0-1-1.47-2.84-1.93-2.49s-1.36-2.84-2.16-3.53a4,4,0,0,1-.9-2.72c0-.46-2.5-3.18-3.19-4.43s-1.47-1-1.59-.46-1.81.68-2.61.57-1.36-3-1.36-4-3.3-1.25-3.86-2.16-2.73-.46-3.07-1a3.63,3.63,0,0,0-2.61-.9c-.34.22-.23,8.06-.57,10.11s-2.16,4-2.84,3.86S81,88,81.33,87.92s-1.25,2.27-1.47,3.86-1.82,0-2-1.47-1.82-3.41-2.16-3-1.36-.57-1.81-.22-3.41-1.71-4.66-2.39-1.82-4.32-2.61-4.66-.12-.79-.12-1.36S68.84,76,69.52,75.2a53.65,53.65,0,0,1,4.32-5c1-.8,1.81-2.61,1.59-3s4.43-1.82,5.68-2.16,2.27-3.86,2.49-4.89a4.17,4.17,0,0,0-1.36-3.06c-.57-.23,1.7-.34,2.5.11s3.07-.68,4.09-.23l4.2,2.5L92.81,62l-.57,4.32c-3.64,1.47-4.66,4.09-3.41,4s7,2.5,8.63,3.64,2.16-1.71,2.62-2.61a7.72,7.72,0,0,0,0-4.21c-.46-.57,1.81-.34,2.49.23s1.37-.57,1.82-.91.68-2.61,1-3.07-1-.9-1.13-1.59-2.61-1.7-3.41-2.15a2.05,2.05,0,0,1-.57-2.5c.34-.34-.22-2.62-.68-3.3s-3.07-1.36-4-1.36-1.82-2-2.39-2.39a16.71,16.71,0,0,0-4.88-.45c-.8.23-2.39-2.5-3.87-1.59s-3-.91-3.63-1.36-4.09,3.29-4,5.79,1.25,5,1.82,5.11S78.61,60,78,60.66,76,60,76.56,59.41s-1.48-3.3-2.16-4.32-2.27-1.47-3.4-1.93l-2,2.27a5.84,5.84,0,0,1,.23,3.07c-.46,1.59-1.82,1.82-1.82,1.14a1.91,1.91,0,0,0-1.48-.57,157.09,157.09,0,0,0-35.55,82.58,7.68,7.68,0,0,1,1.82,2.61c.45,1.37,2.84,2.28,3.29,2.62s.57-2.62.23-3.41.56-1.14.56-.68,2.28,3.06,3,4.09,1.48,6.93,2.27,8.18,7.61,4,9.88,4.43a12.55,12.55,0,0,1,5.46,3.63c.45.68,3.4,1,4,1.36a33.49,33.49,0,0,1,2.73,2.73,4,4,0,0,1,1.13,1.93c0,.34,3.87,1.82,4.89,2.84a2.39,2.39,0,0,0,2.84.34c.23-.45,1,2.05,1.47,3s.46,2.95.12,3.29-.8,4.2-1.48,5-2,6.47-1.7,7.61a8.44,8.44,0,0,0,3,3.75.9.9,0,0,1,.27,1.25.84.84,0,0,1-.38.34c-.57,0-.34,5.56,1.13,6.36S77.47,204.7,77.24,205Z"/><path class="cls-2" d="M85,42.14c1.82-.34,5-.91,5.22-1.36a4.78,4.78,0,0,0-.11-2.16H91c.68,0,1.93-3.86,2.61-4.77s5-2.27,6-2.84,3.3-2.72,4.09-3.07,2.16-2.27,1.93-2.61,3-2.27,4.09-2.72,1.82-1.82,1.37-1.94-6.82,3.41-12.84,6.82A177.31,177.31,0,0,0,78.72,43.05Z"/><path class="cls-2" d="M199.36,238.89c1.93-1.14,5.45-6.25,6.59-7.27s1.93-4.88,2.16-5.68a6.4,6.4,0,0,1,2.49-2.38c.57-.23,2.62-8.64,4.43-10.57s3.87-10.79,3.64-14.08,1.14-9.32,1.59-10.8a16.71,16.71,0,0,1,3.29-4.65,95.45,95.45,0,0,0,6.37-9.21c1.36-2.27,2.72-7.27,2.38-8.51s-3.29-2.05-3.86-1.37-3.41,1-4.32,1-3-4.88-4.2-5.79-2.39-6.59-3.18-7.61a52.6,52.6,0,0,0-3.41-4.32c-.68-.56-.79-3.52-.91-4.31s1.25.45,1.48,1.7,3.52,5.91,4.54,7.5,3.75,6.7,4.43,8.29,6.7.8,8.75-.11,4.43-2.5,4.54-3.07,3.18-1.93,4.09-2.61,1.59-4.32,2.16-4.89-.45-4.09-1.13-5.11-3.75-1.82-4.43-1.48-1.94-2.27-2.5-3.29-2.84-2.27-3.07-2.95a2.51,2.51,0,0,1,1-2.05c.34-.23,4.77,2.84,6,4.43a25.08,25.08,0,0,1,3,4.89c.22.56,3.74.68,4.54.11a1.25,1.25,0,0,1,1.76.1,1,1,0,0,1,.17.24h1l3.86-.57a7.54,7.54,0,0,1,2.28,4.09,4.41,4.41,0,0,0,1.81,2.16c.69.11,1.25,2.61,1.48,3.29a57.23,57.23,0,0,1,2.84,5.91,32.65,32.65,0,0,0,2.73,5.45,12.47,12.47,0,0,1,.79,3.87,2.61,2.61,0,0,0,2.27,1.81c.8-.11,2.62-5.56,3.07-7.61s1.82-3.75,2.16-3.75.68-1.13.68-1.59,2.16-.34,2.39-.9.79-4.21,1.59-4.78a34.73,34.73,0,0,1,4.54-2.72c.91-.34,3.52,1.82,4.09,2.84a8.62,8.62,0,0,1,.8,4c-.23.34,1.24,2.62,2.61,2.62s1.7,1.7,1.82,2.27,1.81,2.38,2.15,3.18a7.48,7.48,0,0,1,0,3.52,18.44,18.44,0,0,0,.12,4.2c.22.8,4.31,5,5.9,6.25s2.28-2.61,1.48-3.75-3.52-4-4.09-4.77-.68-4.2-.45-5.11,2.38.45,3.18,1.14a6.52,6.52,0,0,1,2,2.61c0,.45,5.57-2.61,5.8-5.91s2-7.15,2.15-8.06a2.39,2.39,0,0,0-1-2.16c-.45-.12.8-2.5,2.39-2.5s5.22-4.09,6.13-5.79a13.07,13.07,0,0,1,2.84-3.18,24.49,24.49,0,0,0,1.59-5.68c.23-1.59-.91-4.09-1-5a13.46,13.46,0,0,0-1.82-3.3,7,7,0,0,1-.45-3.29c.11-.34,1.59-.8,1.7-1.25s1.71-2,1.59-2.84.91,1,1.71,1.59,1.47,4.66,2.38,5,4.55-4.21,4.09-7.27,1-6.93,1.93-7.27,2.39-2.73,3.52-4.43a158.09,158.09,0,0,0-39-61.34h-.57l-1.36-.23c-2.27-.46-3.52-2.84-3.18-3.41a1.49,1.49,0,0,0,0-1c-1.25-1.14-2.5-2.27-3.86-3.3h-2.84a12.29,12.29,0,0,1-4.77-1.47c-.46-.46-2.28.45-2.39,1.47s-3.18,1.37-3.41,2.16a1.82,1.82,0,0,1-2.16.46c-.22-.46-3.18,1-4.54,1.13a21.37,21.37,0,0,0-4.66,1.59,7.07,7.07,0,0,0-2.38,2.39,7.36,7.36,0,0,1-2.62,1.82c-.56.22-.45,2.84.23,3.29s-1.36-.34-2.38-.79-1.93,1.13-2.28,1.7-1.13-.34-1.13-1.14-2.39-1.36-2.61-.79-1.94-.23-2.62-.57-3.63,2.73-4.77,3.86-6.36,1.93-7.27,1.59S232,57,232.76,57.25h-3.18a27.9,27.9,0,0,0-7.5,2.84,1.24,1.24,0,0,1-1.76-.15,1.21,1.21,0,0,1-.29-.64c0-.68-1.81-1.25-2.27-1.37s-1.59,3.53-2.5,4.21-2-2.84-4.31-3.52-5.68-2.73-6.71-3-3-2.27-3.52-2.95-3.41-1-4.31-1-3.87,1.7-4.66,2.27-1.93.45-2.39.79-3.75,3.41-5,4.43-3.52,5.34-4.2,6.48A2.74,2.74,0,0,1,178,66.91a2.14,2.14,0,0,0-.79,1.59c0,.45-3.75,2.38-4.2,4.09s.45,5.68.45,7,1.36,4.2,2.38,4.2.57,2.39.23,3.07.68,1.36.57,1.93-2.61,1.36-3.41,1.59A5.68,5.68,0,0,0,171,93.26c-.11.57-2.61,1-3.52,1.82a10.46,10.46,0,0,1,.68-1.82,3,3,0,0,0-.57-2.84c-.34-.34-.57-4.88-1.25-5.91a25.15,25.15,0,0,0-2.61-3c-.34-.34.23-1.48.57-2s-2.16-.8-2.73-.46-1,4.89-1.25,6.14a3.88,3.88,0,0,0,1.59,3.18c.46.11.23,2.27-.57,2.38s-1.59,3.3-1.13,4.09-.57,2.16-1,2.5,3.18.11,4.88.11a4.49,4.49,0,0,1,2.84.8c-.11.11-3.18.57-3.75,1.25s-2.61,2-3,2.61.68,1.71,1.48,1.71,1.81,3,2.49,3.52a2.48,2.48,0,0,1,.12,2.61c-.23.45-4.43-.23-5.91.11s-3.52,3.64-3.63,4.89a32.07,32.07,0,0,0,.45,5.79c.11,1,3.41,1.59,4.09,2s3.75,0,4.43.34,2.73-3.18,3.18-4.77,3.75-4.55,4.43-5.68,4.2-.91,5.11-1.48.46,2.73.8,4.54,3.86,1.59,3.29-.11.34-2.39.46-1.82,3.4,1.93,4.09,2.84.45,3-.23,3-.8,2.15,0,2.49,1.82-2.49,2.61-3,1.48-2.16,1.14-2.27.68-1.7,1.13-1.14a20,20,0,0,0-3.18-4.77c-1.47-1.47-.34-.79,2.16,1.37l1.82,2.49c.34.46.79,1.82,1.13,2.28l.46.68a18.43,18.43,0,0,1,.68,4,2.62,2.62,0,0,0,2.27,1.82,1.5,1.5,0,0,1,1.37.46c-.12.11.56,1.7,1.36,1.7s1.25-2.16.34-2.16-.68-3.18-.8-4.66.57-2.49.91-2.49,0,2.84,0,3.52a11.34,11.34,0,0,0,.8,2.84l.91.68,1.93,1.48c2.84-.8,6.7-.12,6.47.45s2,.68,2.16-.23.23.12.23.68-1.82,3.18-2.16,4.32-6.93.34-9.77.11-7,.69-7.27,1.59-4.66-1.93-6.7-2.72-3.64-3.86-4-4.32.34-1.36.12-2-4.77-.68-6.14-.23-8.29,1.25-9.88,1.93-4.09,0-4.88-.11-2.62,2.16-3.53,2.5-2,3.63-2.61,7.15l-1.25,2.39-.79,1.59c-2.28,1.7-4.77,7.5-5.57,8.75S145,156.31,145,159.15s2.38,8.74,3.18,10.45,4.88,5.22,6.36,6.13,6,1,7.5,1a4.44,4.44,0,0,0,3.75-3.18l2.15.23h1c0,1.25,3.29,2.16,4.09,2.61a6.29,6.29,0,0,0,3.52-.11c.56-.11,1.36,5.57.91,7.27s1.13,7.5,1.59,9.31,2.49,6.59,2.61,8.3-1.14,7.49-1.36,9.54,2.49,7.61,3.18,9.54a35.83,35.83,0,0,1,1.25,7c0,.91,2.95,6.82,3.63,9.2S197.31,240,199.36,238.89Z"/><path class="cls-2" d="M329.54,167.1c.11.45,2-1,3.18-1.25s1.82-3.18.91-3.41-1.93-2.61-2.61-2.84-1.82,1-1.82,1.93-2.05,1.25-2.5,2.05-.34,1.25,0,1.25A10.36,10.36,0,0,1,329.54,167.1Z"/><path class="cls-2" d="M327.27,183.8c.57-.23,0-3.18-1.25-3.41s-4.43,4-3.86,6.36,1.25,2.27,1.59,1.7,2.27.35,2.84.46.56-.34,0-1.25S326.7,184,327.27,183.8Z"/><path class="cls-2" d="M320.79,180.84c.12-1,.34-4.43.46-5.11s-1.82-2.61-2.84-2.95-4.09,6.47-6.36,7.72-3.07,5.46-2.5,6.36,5.34,1.48,6.13,2.16,1.7-.11,2.27-.23.34-.45.12-.56,1.59-2,1.93-3.3A31.42,31.42,0,0,0,320.79,180.84Z"/><path class="cls-2" d="M307.84,192.32c-1.7-.69-3.86.34-4,1s6.81,1.82,9.2,2.38,3.75.8,3.29.46Z"/><path class="cls-2" d="M322.27,146.31c.57-.79-.8-4.43-1.48-3.63s-.11,2.95,0,3.74S321.7,147.11,322.27,146.31Z"/><path class="cls-2" d="M326.36,154.26c.45-.91-.46-1.93-2.05-2.27s-1.25,4.2-.56,4.77S326,155.17,326.36,154.26Z"/><path class="cls-2" d="M334.42,182.66c1.82,1.25,5.91.68,6-1.7C338.63,179.71,334.31,179.93,334.42,182.66Z"/><path class="cls-2" d="M333.4,126.32a2.6,2.6,0,0,0-.91,2.38h-.34c-.57,0-.68,2.39,0,2.84s2.16-1.81,3-2.38a3.79,3.79,0,0,1,2.61-.68,7.81,7.81,0,0,0,3.06-.91,2.66,2.66,0,0,0,.91-1c-.34-1.7-.79-3.4-1.13-5.22l-2.05,1.48Z"/><path class="cls-2" d="M303,185.5a21.05,21.05,0,0,0-4.77-5.57l-.68-1.24-.8-1.37c-.68-1.47-2.95-2.61-3.18-3.06s-.91,1.24-1.7.79l2.38,1.7c2.05,1.48,6.14,11.82,7.16,12.5S303.64,187,303,185.5Z"/><path class="cls-2" d="M270.36,168.8c-.57,1.14,2.95,3.64,3.29,3.07a7.51,7.51,0,0,0-1-4C272,167.21,271,167.67,270.36,168.8Z"/><path class="cls-2" d="M222.65,223.78c.11,1.25,2.61,2.16,3.29,1.93s2.73-3.86,2.95-4.88a31.8,31.8,0,0,0,.57-3.86A5,5,0,0,1,230,215a7.65,7.65,0,0,0,1-2.73c.23-1.36-1.47-7.84-1.47-9s-1.25.56-1.6,1.7-3.52,3.52-4.31,4.43-1.48,4.2-1.14,4.77a7.25,7.25,0,0,1-.57,3.41C221.51,218.33,222.42,222.65,222.65,223.78Z"/><path class="cls-2" d="M106.21,268.77h2.16C108.6,266.38,106.1,266.72,106.21,268.77Z"/><path class="cls-2" d="M164.14,24.08a7.25,7.25,0,0,1-3.63-.79,8.67,8.67,0,0,0-4.89-.34c-1,.45-.34-2.5,1-2.73S156.87,18,155.4,18s-5.23-.57-6-.34a14.89,14.89,0,0,1-3.18-.68c-.57-.12-5.12,1.36-7.16,1.25a47.35,47.35,0,0,0-8.41.45c-1.13.23-1.93,2.5-1.7,3.29s-5,.8-6.59.8S112,24.54,109.73,25.79s-4,4.43-3.29,4.43-1.25,1.81-2.5,2.27-4.09.57-4.77,1.25.68,1.13.91,1.59,1-.34,1.81.11,3.3.57,4,.91-2.16.8-3.41.91-1,2.61,0,3.07,3.86.68,4.09.22,3.3.46,4.66.68,2.39,3.53,2.84,4.32.45,3.3.45,4.09,2.39,2,2.84,1.59.34,1.14-.68,1-.34,2.73.91,3.18.34,2.16-.34,2.73-.34,2.16-1,2.84,2.61,6.36,2.5,9.31,1.81,5.34,2.5,5.34,3.06.57,3.4,1.25,1.48-.45,1.93-.91a27.18,27.18,0,0,0,2.16-3.18c.8-1.25,2.39-7.15,2.62-7.83s3-.23,3.63-.57a28.61,28.61,0,0,0,3-2.16c.46-.45,4.43-2,5.57-2.84s2.84-4.09,3.75-4.88-.46-.46-1.48-1.14a1.15,1.15,0,0,1-.44-1.55,1.39,1.39,0,0,1,.21-.27c.23-.34,3.53.46,4.55.91s3.18-1,2.38-1.59-.34-.57,0-.34.8-1.93.46-2.39,3.18-3.06,2.61-5.56.91-5.11,1.93-5.11.68-2.84-.57-3.07,0-.46.46-.91A7.15,7.15,0,0,0,158,30.1c-.23-.45,1.82-1,2.16-1.59a9.69,9.69,0,0,1,3.52-1.82C164.37,26.35,164.94,24.08,164.14,24.08Z"/><path class="cls-2" d="M184.59,26.35c-1.13-.34-3.41.91-3.07,1.59s-1.81-.9-3.29-.11-1.93,3.41-1.25,3.75,1.14,2.38,1.14,2.84,2.84.11,3.63-.46.57,2-.11,2.84.23,2.16,1,2.28S184.48,41,185.39,41s2.27-3.18,2.5-4.32,3.06-.23,4.31.11,1.71-4.31.34-5.11-3.06-.34-3.63-.91a4.39,4.39,0,0,0-2.16-1.13C186.3,29.53,185.73,26.69,184.59,26.35Z"/><path class="cls-2" d="M195.61,28.63a7.89,7.89,0,0,0,5.23-2.05c.56-.45-6.14-1.82-8.75-1.93s-4.54.23-4.54.8S193.45,28.29,195.61,28.63Z"/><path class="cls-2" d="M154.94,89c-.56-.23-.91,1.93-.79,2.72s2.16.8,3.07.57a1.8,1.8,0,0,0,1.47-1.59c0-.68-1.25-4-1.7-4S155.51,89.17,154.94,89Z"/><path class="cls-2" d="M161.53,63.16c-.45-.8-3.86-.68-4.77-.68a12.21,12.21,0,0,1-4-1.48c-.57-.57-.8,2.16-1.59,2.5s.45.79.68.57,0,1.36-.46,1.93,2.27.91,2.62,1.82a2.27,2.27,0,0,0,2.38,1.25c1-.12,3.07-1.25,3.86-1.37S162,64.07,161.53,63.16Z"/><path class="cls-2" d="M235,43.17c1.13-1.14,6.13-2.84,6.7-4.09a1.58,1.58,0,0,0-.59-2.17,1,1,0,0,0-.21-.11,1.73,1.73,0,0,0-1.24.8c-.12.23-5.8,1.48-7.5,2.39a18.58,18.58,0,0,0-4.43,2.84c-.68.68-1.93,6.36-2.27,6.92s1.81,2.84,2.84,3.53a5.28,5.28,0,0,0,2.84.22c.45-.11-.46-4-1-5.34S233.89,44.42,235,43.17Z"/><path class="cls-2" d="M229,28.51c1.82,1.82,2.84-.79,4.88-.57C233.89,24.08,228.78,25.56,229,28.51Z"/><path class="cls-2" d="M265.24,29.31c0,.68,5.12,1.25,6.71.91s-.34-2.62-2.5-2.5S265.24,28.63,265.24,29.31Z"/><path class="cls-2" d="M76.22,67.93c-.57.45,0,3.07.91,3.07s2.73-3.87,4-3.07,2.15,1,1.93.68-3.86-1.93-4.32-2.27S76.79,67.48,76.22,67.93Z"/><path class="cls-2" d="M89.51,154.72c0,.45,2.27.34,2.62-.34s.11-1.25-.46-1.25A3.61,3.61,0,0,0,89.51,154.72Z"/><path class="cls-2" d="M79.4,151c1-.23.57,1.47.8,2.16s2.84,1.13,3.41,1.59,1.81-.8,2.84-.69-.35-3.63-2-3.52-3.07-1.59-3.52-1.81a19.32,19.32,0,0,1-2.95-1.82c-.57-.46-5-.8-6.48-.8a4.68,4.68,0,0,0-3.41,2c-.22.45,2.39.91,3.07.45s4.2.46,5,1.25A4.21,4.21,0,0,0,79.4,151Z"/><path class="cls-2" d="M74.63,154.72c0,.45,2.27.11,2.84.11s.57-.45,0-.79S74.63,154.26,74.63,154.72Z"/><path class="cls-2" d="M76.22,142.9c-.57-.22-1,.68-1,1.14a.79.79,0,0,0,.68.79C76.34,144.83,76.9,143.13,76.22,142.9Z"/><path class="cls-2" d="M81.11,143.24a1.94,1.94,0,0,0-1.48-.79c-.34,0-.45.68-.45,1.7S81.22,143.7,81.11,143.24Z"/><path class="cls-2" d="M84.51,148.58c.91-.45,1-1.47.46-1.47s-1.59-1.59-2.16-1.82-1,1-1,1.47a.68.68,0,0,0,.56.79h.12C82.92,147.45,83.61,149,84.51,148.58Z"/><path class="cls-2" d="M341.35,184.71c-.45.22-2.72.45-3.06.11s-.69.91-1.25,1.14-.23,1.36.56,1,2.73.91,4.43,2c.35-1.7.69-3.52.91-5.34Z"/><path class="cls-2" d="M77.24,205c-.22.45,2.62,3.29,3.64,4.32a29.43,29.43,0,0,1,3.86,7.27,13,13,0,0,1,0,4.65,8.18,8.18,0,0,0,.57,2.39c.11.57-.91,5.11-.57,7s-2.16,7.61-2,10.57,1.36,6.58,1.81,6.36.69,2.61-.11,3-1.93,2.61-1.36,2.73,0,2.38.11,3.29.91,6.93,1,8.41,2.28,5.11,2.73,6.36.91,3.52,1,3.86l.34.8a10.3,10.3,0,0,1,2.27,1c.46.34,3.87.11,5-.12s.12-1.25-.34-1.7-.91-3.18-1.47-3.41-.8-3.63-.35-4.43,2.5-1.93,2.73-2.61.23-3.52-.23-4,.12-4-.22-5.79,3.06-3.41,3.29-4.77,4-2.95,4.77-3.64,1.59-4.77,1.14-5.56,1.36-1.59,2.16-1.59a12.12,12.12,0,0,0,2-.57c.23,0,1.25-1.82,1.7-2.16s1.59-4.66,2.5-5.34a7.67,7.67,0,0,0,1.71-4,10.56,10.56,0,0,1,1.93-3.64c.45-.68,4-2.27,4.66-2.5s1.59-5.9,1.81-7.95a46.71,46.71,0,0,1,1.37-5.45c0-.68,1.13-1.25,1.36-1.48s1-2.84,1.59-3.41,2.5-3.06,2.5-3.63a18.19,18.19,0,0,1,.68-3.18v-3.52c-.57-1.71-2.5-3.86-3-3.3s-2.62-1.47-3.75-1.93a18.89,18.89,0,0,0-4.55-.68c-.68,0-3.06-1.93-4.2-2.27a38.5,38.5,0,0,1-4.32-1.14c-.45-.34-1.13-4.43-3.4-5.79s-6.14-4.54-6.59-5.68-4.66-3.52-6-4.32-3.3-.91-3.52-.57-1.93-2.27-2.73-2.95-3.41-1.25-3.52-.68-1.82.23-2.16-.23-1.7.23-2.39.46S78,167,77,167.78s-2.16-.68-2.84-1a6.77,6.77,0,0,0-3.75,1c-.68.45-2.16-3.41-1.82-5.23s-1.59-5.33-3.18-5.45-1.93-3.86-1.7-5.22S61,149.6,60.2,149.49s-2.61,1.82-3,2.84-7.27-1.25-6.47-5.45,4.08-8.52,4.88-9,5.23-.68,6.25-.11a1.82,1.82,0,0,0,2-.23,13.92,13.92,0,0,1,4.89.46c1,.45,2.61,4.65,3.75,5.11s1.47-2.73,1.7-3.52a10.16,10.16,0,0,0-.8-3.3c-.22-.56,1.82-5.68,3.53-6.47s3.52-3.75,3.29-4.2,1.36-.91,1.7-1.14,0-4.32.57-5.23a19.77,19.77,0,0,1,4.89-3.18c1-.45,1.7-3,1.36-3.52s2.61-2.95,4.2-3.52,2.84.91,2.5,1,2.39-1.25,3.3-1.82,0-2.61-.69-3.18-.22-2.72.57-2.95a2.84,2.84,0,0,0,1.25-2.5c-.23-.34,3.41.34,4.77-.68s.34,2.39-.57,3.86a1.6,1.6,0,0,0,.4,2.22,1.65,1.65,0,0,0,1,.28,1.47,1.47,0,0,1,1.47,1.14c.12.34,1.48-.46,2.39,0s1.48-1.25,1.48-2-2.16-2.27-2.5-3.29a52.19,52.19,0,0,1-.46-7.39c0-1-1.47-2.84-1.93-2.49s-1.36-2.84-2.16-3.53a4,4,0,0,1-.9-2.72c0-.46-2.5-3.18-3.19-4.43s-1.47-1-1.59-.46-1.81.68-2.61.57-1.36-3-1.36-4-3.3-1.25-3.86-2.16-2.73-.46-3.07-1a3.63,3.63,0,0,0-2.61-.9c-.34.22-.23,8.06-.57,10.11s-2.16,4-2.84,3.86S81,88,81.33,87.92s-1.25,2.27-1.47,3.86-1.82,0-2-1.47-1.82-3.41-2.16-3-1.36-.57-1.81-.22-3.41-1.71-4.66-2.39-1.82-4.32-2.61-4.66-.12-.79-.12-1.36S68.84,76,69.52,75.2a53.65,53.65,0,0,1,4.32-5c1-.8,1.81-2.61,1.59-3s4.43-1.82,5.68-2.16,2.27-3.86,2.49-4.89a4.17,4.17,0,0,0-1.36-3.06c-.57-.23,1.7-.34,2.5.11s3.07-.68,4.09-.23l4.2,2.5L92.81,62l-.57,4.32c-3.64,1.47-4.66,4.09-3.41,4s7,2.5,8.63,3.64,2.16-1.71,2.62-2.61a7.72,7.72,0,0,0,0-4.21c-.46-.57,1.81-.34,2.49.23s1.37-.57,1.82-.91.68-2.61,1-3.07-1-.9-1.13-1.59-2.61-1.7-3.41-2.15a2.05,2.05,0,0,1-.57-2.5c.34-.34-.22-2.62-.68-3.3s-3.07-1.36-4-1.36-1.82-2-2.39-2.39a16.71,16.71,0,0,0-4.88-.45c-.8.23-2.39-2.5-3.87-1.59s-3-.91-3.63-1.36-4.09,3.29-4,5.79,1.25,5,1.82,5.11S78.61,60,78,60.66,76,60,76.56,59.41s-1.48-3.3-2.16-4.32-2.27-1.47-3.4-1.93l-2,2.27a5.84,5.84,0,0,1,.23,3.07c-.46,1.59-1.82,1.82-1.82,1.14a1.91,1.91,0,0,0-1.48-.57l-2,2.61-2.05,2.61-2,2.84-1.82,2.5-2.61,3.86-2.39,3.75c-.68,1-1.25,2.16-1.93,3.3a12.84,12.84,0,0,0-1.25,2.27l-1.93,3.52-1,2c-1.36,2.72-2.73,5.56-4,8.52v.22l-1.7,4.32L40.44,103l-1.59,4.43-.23.68a153.61,153.61,0,0,0-4.43,15.34c-.11.34-.11.68-.23,1a159.51,159.51,0,0,0-2.84,16.7h0a7.42,7.42,0,0,1,1.82,2.61c.45,1.36,2.84,2.27,3.29,2.61s.57-2.61.23-3.41.57-1.13.57-.68,2.27,3.07,2.95,4.09,1.48,6.93,2.28,8.18,7.61,4,9.88,4.43a12.48,12.48,0,0,1,5.45,3.64c.45.68,3.41,1,4,1.36a30.47,30.47,0,0,1,2.72,2.73,4,4,0,0,1,1.14,1.93c0,.34,3.86,1.81,4.88,2.84a2.39,2.39,0,0,0,2.84.34c.23-.46,1,2,1.48,2.95s.45,3,.11,3.3-.79,4.2-1.47,5-2,6.48-1.71,7.61a8.39,8.39,0,0,0,3,3.75.92.92,0,0,1,.27,1.26,1,1,0,0,1-.39.33c-.57,0-.34,5.57,1.14,6.36S77.47,204.7,77.24,205Z"/><path class="cls-2" d="M85,42.14c1.82-.34,5-.91,5.22-1.36a4.78,4.78,0,0,0-.11-2.16H91c.68,0,1.93-3.86,2.61-4.77s5-2.27,6-2.84,3.3-2.72,4.09-3.07,2.16-2.27,1.93-2.61,3-2.27,4.09-2.72,1.82-1.82,1.37-1.94-6.82,3.41-12.84,6.82h-.11L93,31.13l-3.29,2.61L88,35.1l-3.87,3.3-.79.68-4.2,3.75Z"/><path class="cls-2" d="M185.05,119.27c-.69,0-.8,2.16,0,2.5s1.25-1.25,1.93-2.15v-8.75h-.12c-.91-.91-.79-.91.12-.23V56.46l-2,1.81c-1.25,1-3.52,5.34-4.2,6.48A2.73,2.73,0,0,1,178.57,66a2.14,2.14,0,0,0-.79,1.59c0,.45-3.75,2.38-4.21,4.09s.46,5.68.46,7,1.36,4.2,2.38,4.2.57,2.39.23,3.07.68,1.36.57,1.93-2.61,1.37-3.41,1.59a5.63,5.63,0,0,0-2.27,2.84c-.12.57-2.61,1-3.52,1.82s.56-1.36.68-1.82a3.07,3.07,0,0,0-.57-2.84c-.34-.34-.57-4.88-1.25-5.9a26.19,26.19,0,0,0-2.61-3c-.46-.34.23-1.47.57-2s-2.16-.8-2.73-.46-1,4.89-1.25,6.14a3.88,3.88,0,0,0,1.59,3.18c.45.11.23,2.27-.57,2.38s-1.59,3.3-1.13,4.09-.57,2.16-1,2.5,3.19.12,4.89.12a4.42,4.42,0,0,1,2.84.79c-.11.11-3.18.57-3.75,1.25s-2.61,2.05-2.95,2.61.68,1.71,1.47,1.71,1.82,3,2.5,3.52a2.5,2.5,0,0,1,.12,2.61c-.23.46-4.43-.23-5.91.12s-3.52,3.63-3.64,4.88a32.08,32.08,0,0,0,.46,5.79c.11.91,3.41,1.59,4.09,2s3.75,0,4.43.34,2.72-3.18,3.18-4.77,3.75-4.55,4.43-5.68,4.2-.91,5.11-1.48.46,2.73.8,4.55,3.86,1.59,3.29-.12.34-2.38.45-1.82,3.41,1.94,4.09,2.84S185.73,119.27,185.05,119.27Z"/><path class="cls-2" d="M187,130.07a8.88,8.88,0,0,0-1.71-.8c-2-.79-3.63-3.86-4-4.32s.34-1.36.11-2-4.77-.68-6.13-.23-8.3,1.25-9.89,1.93-4.08,0-4.88-.11-2.61,2.16-3.52,2.5-2.05,3.63-2.61,7.16l-1.25,2.38-.8,1.59c-2.27,1.71-4.77,7.5-5.57,8.75s-1.36,9.54-1.36,12.38,2.39,8.75,3.18,10.45,4.89,5.23,6.36,6.13,6,1,7.5,1a4.43,4.43,0,0,0,3.75-3.18l2.16.22h1c0,1.25,3.29,2.16,4.09,2.62a6.21,6.21,0,0,0,3.52-.12c.57-.11,1.36,5.57.91,7.27s1.14,7.5,1.59,9.32,2.5,6.59,2.61,8.29-1.13,7.5-1.36,9.54,2.5,7.61,3.18,9.54a35.08,35.08,0,0,1,1.25,7,21.65,21.65,0,0,0,1.59,4.09V129.84h0Z"/><path class="cls-2" d="M106.21,268.77h2.16C108.6,266.38,106.1,266.72,106.21,268.77Z"/><path class="cls-2" d="M149.83,52.59c1.14.46,3.18-1,2.39-1.59s-.34-.56,0-.34.79-1.93.45-2.38,3.18-3.07,2.61-5.57,1-5.11,1.94-5.11.68-2.84-.57-3.07,0-.45.45-.91a7,7,0,0,0,.68-3.4c-.22-.46,1.82-1,2.16-1.59a8.78,8.78,0,0,1,3.52-1.82c.91-.12,1.25-2.39.46-2.27a7.3,7.3,0,0,1-3.64-.8c-.45-.45-3.86-.79-4.88-.45s-.34-2.5,1-2.73.23-2.27-1.25-2.27-5.23-.57-6-.34a15,15,0,0,1-3.18-.68c-.57-.12-5.11,1.36-7.16,1.25a47.19,47.19,0,0,0-8.4.45c-1.14.23-1.93,2.5-1.71,3.29s-5,.8-6.59.8-10.33,1.82-12.61,3.07-4,4.43-3.29,4.43-1.25,1.81-2.5,2.27-4.09.57-4.77,1.25.68,1.13.91,1.59,1-.46,1.82,0,3.29.57,4,.91-2.16.79-3.4.91-1,2.61,0,3.06,3.86.69,4.08.23,3.3.45,4.66.68,2.39,3.52,2.84,4.32.46,3.29.46,4.09,2.38,2,2.84,1.59.34,1.13-.69,1-.34,2.73.91,3.18.34,2.16-.34,2.73-.34,2.16-1,2.84,2.61,6.36,2.5,9.31,1.82,5.34,2.5,5.34,3.07.57,3.41,1.25,1.47-.45,1.93-.91A30,30,0,0,0,128.48,73c.79-1.25,2.38-7.16,2.61-7.84s2.95-.22,3.63-.56a29.87,29.87,0,0,0,3-2.16c.45-.46,4.43-2,5.56-2.84s2.84-4.09,3.75-4.89-.45-.45-1.48-1.13a1.14,1.14,0,0,1-.43-1.55.9.9,0,0,1,.21-.27C145.52,51.34,148.81,52.14,149.83,52.59Z"/><path class="cls-2" d="M184.59,26.35c-1.13-.34-3.41.91-3.07,1.59s-1.81-.9-3.29-.11-1.93,3.41-1.25,3.75,1.14,2.38,1.14,2.84,2.84.11,3.63-.46.57,2-.11,2.84.23,2.16,1,2.28S184.48,41,185.39,41a2.72,2.72,0,0,0,1.47-1.71V29.53h0C186.3,29.53,185.73,26.69,184.59,26.35Z"/><path class="cls-2" d="M157.33,92.24a1.83,1.83,0,0,0,1.48-1.59c0-.68-1.25-4-1.71-4s-1.36,2.39-2,2.16-.91,1.93-.8,2.73S156.31,92.47,157.33,92.24Z"/><path class="cls-2" d="M154.15,67.82a2.27,2.27,0,0,0,2.38,1.25c1-.12,3.07-1.25,3.87-1.37s1.47-3.75,1-4.54-3.86-.68-4.77-.68a12.35,12.35,0,0,1-4-1.48c-.57-.57-.79,2.16-1.59,2.5s.34.79.68.57,0,1.36-.45,1.93S153.92,67.13,154.15,67.82Z"/><path class="cls-2" d="M76.22,67.93c-.57.45,0,3.07.91,3.07s2.73-3.87,4-3.07,2.15,1,1.93.68-3.86-1.93-4.32-2.27S76.79,67.48,76.22,67.93Z"/><path class="cls-2" d="M89.51,154.72c0,.45,2.27.34,2.62-.34s.11-1.25-.46-1.25A3.61,3.61,0,0,0,89.51,154.72Z"/><path class="cls-2" d="M79.4,151c1-.23.57,1.47.8,2.16s2.84,1.13,3.41,1.59,1.81-.8,2.84-.69-.35-3.63-2-3.52-3.07-1.59-3.52-1.81a19.32,19.32,0,0,1-2.95-1.82c-.57-.46-5-.8-6.48-.8a4.68,4.68,0,0,0-3.41,2c-.22.45,2.39.91,3.07.45s4.2.46,5,1.25A4.21,4.21,0,0,0,79.4,151Z"/><path class="cls-2" d="M74.63,154.72c0,.45,2.27.11,2.84.11s.57-.45,0-.79S74.63,154.26,74.63,154.72Z"/><path class="cls-2" d="M76.22,142.9c-.57-.22-1,.68-1,1.14a.79.79,0,0,0,.68.79C76.34,144.83,76.9,143.13,76.22,142.9Z"/><path class="cls-2" d="M81.11,143.24a1.94,1.94,0,0,0-1.48-.79c-.34,0-.45.68-.45,1.7S81.22,143.7,81.11,143.24Z"/><path class="cls-2" d="M84.51,148.58c.91-.45,1-1.47.46-1.47s-1.59-1.59-2.16-1.82-1,1-1,1.47a.68.68,0,0,0,.56.79h.12C82.92,147.45,83.61,149,84.51,148.58Z"/><path class="cls-3" d="M90.19,39c-.11-.11-.79.34-.45.57A.36.36,0,0,0,90.19,39Z"/><path class="cls-3" d="M107.69,91.1c-.12-.11-.8.34-.57.57S108,91.44,107.69,91.1Z"/><path class="cls-4" d="M107,45.89H19.2A19.2,19.2,0,0,0,0,65.09V275.58a19.2,19.2,0,0,0,19.2,19.2H107a19.2,19.2,0,0,0,19.19-19.2V65.2a19.08,19.08,0,0,0-18.85-19.31Z"/><path class="cls-5" d="M46.46,60.89H79.63a1.7,1.7,0,0,1,1.7,1.7,1.58,1.58,0,0,1-1.46,1.7H46.46a1.7,1.7,0,0,1,0-3.4Z"/><path class="cls-5" d="M63,280.69a11.13,11.13,0,1,1,11.14-11.13A11.25,11.25,0,0,1,63,280.69Z"/><rect class="cls-5" x="8.18" y="83.83" width="109.62" height="162.32"/><path class="cls-6" d="M63,261.84a7.83,7.83,0,0,0-7.72,7.72A7.73,7.73,0,1,0,63,261.84Z"/><rect x="14.54" y="121.32" width="97.01" height="45.7"/><rect class="cls-7" x="41.12" y="99.85" width="70.09" height="6.93"/><path class="cls-7" d="M32.72,103.37a9.09,9.09,0,1,1-9.09-9.09A9.09,9.09,0,0,1,32.72,103.37Z"/><rect class="cls-7" x="14.54" y="203.22" width="97.01" height="2.85"/><rect class="cls-7" x="14.54" y="213.1" width="97.01" height="2.85"/><rect class="cls-7" x="14.54" y="222.87" width="97.01" height="2.85"/><rect class="cls-7" x="14.54" y="232.64" width="70.43" height="2.85"/><rect class="cls-7" x="14.54" y="184.25" width="64.52" height="6.93"/><path class="cls-5" d="M69.86,144.33c-.09,1.19-.19,2.3-.27,3.41-.07.85-.11,1.71-.17,2.57s-.24.9-1,.89c-.93,0-1.85-.11-2.79,0-.64,0-.82-.21-.77-1,.17-2.23.35-4.47.52-6.7.19-2.41.37-4.82.57-7.23.08-.95.2-1,1.08-1s2,0,3-.09a.91.91,0,0,1,1.06.78c.61,2.26,1.4,4.46,2,6.74,0,.19.09.42.34.39s.26-.27.3-.45c.49-2.16,1.15-4.27,1.78-6.39.27-.92.39-1,1.3-1s1.94-.05,2.92-.07,1,0,1.06,1l.66,8.74c.14,1.8.29,3.59.43,5.39.06.88-.06,1-.89,1H78.49c-.88,0-.94,0-1-.94-.14-1.82-.27-3.64-.41-5.45,0-.17.12-.46-.17-.48s-.18.26-.23.42c-.56,1.89-1.14,3.77-1.68,5.67-.16.57-.46.86-1,.79a3.62,3.62,0,0,0-.57,0c-1,0-1.28-.21-1.6-1.23-.53-1.69-1-3.39-1.54-5.09A.72.72,0,0,0,69.86,144.33Z"/><path class="cls-5" d="M91.62,150a22.45,22.45,0,0,1-2.22-2.25c-.07-.07-.15-.22-.13-.28.43-1.1-.6-1.35-1.08-1.8s-.8.29-1.15.6-.18.53.06.78l.86.88c.2.21.4.42.7.16s.31,0,.43.12l2,1.86c-.31.35-.74.15-.67.7,0,.28-.59.67-1,1.06,0-.28.22-.53-.17-.57a2.08,2.08,0,0,1-.66-.23.55.55,0,0,0-.81.17c-.17.24-.36.33-.45-.08,0-.23-.26-.33-.44-.45-.56-.4-1-1-1.54-1.36-.84-.51-.9-1.42-1.3-2.16a6.9,6.9,0,0,1-.72-2.57,1.23,1.23,0,0,0-.26-.79.43.43,0,0,1-.09-.49c.58-1.43.74-3,1.38-4.41.46-1.06,1.4-1.45,2-2.27.3-.42.93-.53,1.1-1.12a.28.28,0,0,1,.21-.13c1.27,0,2.4-.72,3.69-.64a10.11,10.11,0,0,1,2.73.49c.29.1.57.29.91.14.15-.07.28,0,.38.16A16.39,16.39,0,0,0,98.16,138a.49.49,0,0,1,.19.24c.35,1.53,1.05,2.92,1.33,4.49a9.42,9.42,0,0,1-.25,2.37,8,8,0,0,1-1.26,3.46,6.5,6.5,0,0,1-2.11,2c-.12.08-.3.15-.35.27-.25.57-.52.61-.87.1-.08-.1-.18-.07-.29,0s-.28.1-.41.17a1.19,1.19,0,0,1-1.8-.49c-.12-.21-.37-.21-.47-.41s0-.17.07-.24a12.56,12.56,0,0,0,1.62-1.56,1,1,0,0,1,.87-.41,2.46,2.46,0,0,0,1.5-1.26c.08-.48-.34-.66-.59-.93a.38.38,0,0,0-.61,0c-.44.5-1.14.82-1,1.69,0,.26-.19.43-.35.61-.53.58-1.12,1.12-1.62,1.74Z"/><path class="cls-5" d="M45.59,151.19c-1.37,0-2.69,0-4,0-.36,0-.52-.2-.69-.48-.77-1.31-1.56-2.61-2.34-3.91a1.5,1.5,0,0,0-.55-.62c-.58-.3-1-.06-1,.61,0,1.23-.08,2.46-.07,3.69,0,.56-.2.74-.71.72-.93,0-1.86,0-2.78,0-.62,0-.82-.19-.81-.83,0-3.58,0-7.16.07-10.75,0-1.07,0-2.15,0-3.23,0-.59.2-.95.83-1a59.15,59.15,0,0,1,8.1.1,4.89,4.89,0,0,1,4,4.09A5.25,5.25,0,0,1,43.16,145c-.91.52-.91.56-.34,1.47.92,1.5,1.83,3,2.74,4.51C45.58,151,45.57,151.06,45.59,151.19Z"/><path class="cls-5" d="M51.11,151.68a1.35,1.35,0,0,0-.75-.88,9.83,9.83,0,0,1-2-1.78,6.83,6.83,0,0,1-1-2.3c-.21-.62-.22-1.34-.47-1.9a4.23,4.23,0,0,1,.08-2.59,8.49,8.49,0,0,1,.86-2.68,1.28,1.28,0,0,0,.26-.85.3.3,0,0,1,.15-.34c1-.46,1.45-1.52,2.39-2a.76.76,0,0,0,.35-.45c0-.13.12-.27.25-.26.94.11,1.74-.44,2.64-.57a8,8,0,0,1,3.67.37,1.8,1.8,0,0,0,1,.19.29.29,0,0,1,.35.11c.49.94,1.43,1.4,2.14,2.1,1.28,1.24,1.54,2.88,2,4.47.11.4,0,.84.31,1.19a.42.42,0,0,1,0,.38,43.31,43.31,0,0,1-1.55,5c-.13.33-.48.27-.62.49-.59.89-1.66,1.27-2.19,2.21-.07.12-.16.14-.26.07-.52-.38-.48,0-.5.38-.07.86.06,1.73,0,2.6a1,1,0,0,0,.66,1.14c.36.1.2.33,0,.45a5.59,5.59,0,0,1-1.23.65c-1.85.58-3.64,1.37-5.45,2-1.16.43-2.25.05-3.37-.07-.11,0-.33-.12-.26-.23.22-.33.05-.83.49-1.06a5.8,5.8,0,0,0,1.55-1.11,10.44,10.44,0,0,0,1-1.14c.29-.4,0-.76,0-1.12s.62,0,.8-.48a1.8,1.8,0,0,0-.55-2.21C51.5,151.22,51.4,151.65,51.11,151.68Z"/><path class="cls-8" d="M76.7,154.38c.29-.58.55-1,.74-1.51s.52-.37.84-.35.24.4.24.61c0,.94,0,1.89,0,2.83,0,.37-.14.45-.45.43s-.56.05-.52-.42,0-.82,0-1.33a1.82,1.82,0,0,0-.47.76c-.1.18-.18.33-.42.33s-.32-.15-.4-.34a1.74,1.74,0,0,0-.47-.68c0,.44,0,.88,0,1.32s-.18.37-.43.36-.51.08-.5-.36c0-1.06,0-2.11,0-3.16,0-.19,0-.38.25-.35s.59-.14.77.25S76.4,153.77,76.7,154.38Z"/><path class="cls-9" d="M71.38,156.32c-.72.22-1.13,0-1.3-.68a3.7,3.7,0,0,0-.24-.54c-.06-.13-.11-.31-.29-.28s-.15.23-.16.37,0,.35,0,.52c0,.33.13.7-.45.7s-.5-.3-.49-.66c0-.92,0-1.84,0-2.76,0-.38.1-.51.46-.48s.89,0,1.33,0a1,1,0,0,1,.93.76,1,1,0,0,1-.31,1.18c-.29.21-.18.37-.07.58C71,155.47,71.17,155.88,71.38,156.32Z"/><path class="cls-9" d="M65.24,154.38v-.86c0-1,0-1,1-1a5.3,5.3,0,0,1,.69,0,1,1,0,0,1,1,1.1c0,.54,0,1.09,0,1.64a1,1,0,0,1-.9,1.07,13.86,13.86,0,0,1-1.45,0c-.26,0-.3-.13-.3-.37C65.25,155.47,65.24,154.93,65.24,154.38Z"/><path class="cls-9" d="M80.33,152.45a1.59,1.59,0,0,1,1.17.45c.19.22.37.6.15.75s-.69.31-.89-.18a.43.43,0,0,0-.5-.29.37.37,0,0,0-.38.36.36.36,0,0,0,.26.4c.28.1.56.17.84.25a1,1,0,0,1,.74,1.08,1,1,0,0,1-.82,1.09,1.81,1.81,0,0,1-1.68-.28.79.79,0,0,1-.3-.69c0-.18.12-.24.25-.21s.59-.22.7.29c.07.33.41.25.65.23s.24-.21.25-.4a.44.44,0,0,0-.36-.53l-.66-.18a1,1,0,0,1-.79-1.11,1,1,0,0,1,1-1Z"/><path class="cls-8" d="M71.67,154.05v-.92c0-.32-.1-.64.44-.64s.52.25.5.64c0,.64,0,1.28,0,1.91,0,.29-.1.66.38.67s.4-.33.4-.64c0-.7,0-1.41,0-2.11,0-.4.16-.45.49-.46s.47.1.45.48c0,.79,0,1.58,0,2.37s-.51,1.1-1.3,1.1a1.17,1.17,0,0,1-1.33-1.08C71.66,154.93,71.67,154.49,71.67,154.05Z"/><path class="cls-10" d="M91.08,150.57c.6.22.87.81,1.32,1.22a1.67,1.67,0,0,1-1.82,0C90.65,151.4,91.63,151.36,91.08,150.57Z"/><path class="cls-11" d="M91.54,149.89c0-.07.08-.07.09-.14.21,0,.38,0,.39.26l-.15.16Z"/><path class="cls-12" d="M91.51,139.83a3,3,0,0,1,2.62,1.75,3.9,3.9,0,0,1-.4,4.15,2.71,2.71,0,0,1-4.14.31,3.75,3.75,0,0,1-1-3.68A3.08,3.08,0,0,1,90.87,140,4.18,4.18,0,0,1,91.51,139.83Z"/><path class="cls-13" d="M92,150l-.39-.26a16.3,16.3,0,0,1,1.72-1.9c.18-.19.35-.34.19-.66a.54.54,0,0,1,.18-.65c.15-.14.3-.3.45-.46.87-.91,1-.9,1.83.06a.58.58,0,0,1,0,.9c-.31.31-.6.62-.9.93-.14.15-.32.33-.49.23-.5-.29-.7.11-1,.39s-.78.8-1.16,1.21C92.33,149.92,92.22,150.06,92,150Z"/><path class="cls-14" d="M94.77,137.07a2.48,2.48,0,0,1-1-.1,6,6,0,0,0-4.19-.28l-.42.12c-.16,0-.38.09-.42-.15s.16-.21.3-.26A6.29,6.29,0,0,1,94.77,137.07Z"/><path class="cls-11" d="M97.93,145.43c-.17-1.05.1-2,0-3s-.63-1.84-.77-2.81C98.29,140.51,98.8,144,97.93,145.43Z"/><path class="cls-11" d="M85.18,140.44a10.85,10.85,0,0,0-.52,3.26,5.74,5.74,0,0,1,.1,1.76.6.6,0,0,1-.35-.51,7.56,7.56,0,0,1,.3-4.24c.06-.17.1-.4.32-.46S85.25,140.27,85.18,140.44Z"/><path class="cls-12" d="M97,147.62a13.71,13.71,0,0,1-1.26,1.5c-.49.46-1,.31-1.49.49a6.7,6.7,0,0,0,2.3-1.93c.09-.09.16-.18.3-.18S97,147.52,97,147.62Z"/><path class="cls-11" d="M85.18,140.44l-.15-.19a3.56,3.56,0,0,1,.92-1.68c.11-.12.21-.25.37-.13s0,.26-.07.37Z"/><path class="cls-11" d="M86.17,147.78a4.93,4.93,0,0,1,1.26,1.56c-.65-.36-1.33-.68-1.45-1.56A.14.14,0,0,1,86.17,147.78Z"/><path class="cls-12" d="M87.45,137.67c0,.3-.28.33-.48.44s-.22-.09-.23-.19c0-.36.34-.3.52-.46S87.46,137.48,87.45,137.67Z"/><path class="cls-12" d="M96,137.88c-.34.42-.55.12-.77-.08s-.14-.24-.07-.27C95.56,137.39,95.74,137.76,96,137.88Z"/><path class="cls-12" d="M97,147.62l-.15-.12.55-.9c.14,0,.18.05.13.18A1,1,0,0,1,97,147.62Z"/><path class="cls-11" d="M85.69,147.37c-.15-.2-.49-.55-.34-.63s.26.35.46.49S85.8,147.39,85.69,147.37Z"/><path class="cls-11" d="M85.69,147.37l.12-.14a1.46,1.46,0,0,1,.36.55H86Z"/><path class="cls-12" d="M97.48,146.78l-.13-.18.17-.43C97.63,146.43,97.65,146.61,97.48,146.78Z"/><path class="cls-12" d="M37,141.22a8.92,8.92,0,0,1,.09-1.63c.08-.4.29-.65.68-.65a10.7,10.7,0,0,1,1.88,0,1.77,1.77,0,0,1,1.55,2,1.81,1.81,0,0,1-1.63,1.91,17.15,17.15,0,0,1-2.15,0c-.31,0-.43-.2-.43-.52S37,141.6,37,141.22Z"/><path class="cls-12" d="M47.89,142.6a7.28,7.28,0,0,1,2.94-5.21A7,7,0,0,1,61.45,140a1.37,1.37,0,0,1,.17.62.17.17,0,0,1-.14.08h0s-.11,0-.1,0c.17.36.26.76.45,1.11s0,1,.18,1.43a1.18,1.18,0,0,1,0,.2,3.14,3.14,0,0,1,0,.81,2.44,2.44,0,0,0-.08.85,1.83,1.83,0,0,0,.09.52,4.1,4.1,0,0,1-.77,2.11c-.12,0-.16,0-.2-.12a.45.45,0,0,1,.1-.33c-.21.23-.28.45-.43.61l-.28.33a3.65,3.65,0,0,1-1,1.06c-.27.2-.53.43-.82.61a.19.19,0,0,1-.16-.05l0-.12c-.08-.37.17-.81-.06-1.09s-.64-.1-1-.09c-.05,0-.15,0-.15-.05,0-.58-.58-.66-.8-1.08a4,4,0,0,0,1.76-4.62,3.35,3.35,0,0,0-3.38-2.7,3.58,3.58,0,0,0-3.09,3.25,3.82,3.82,0,0,0,2.58,4.29c.14,0,.35.06.24.33s-.06.46-.37.42a2,2,0,0,1-.67-.17c-.71-.3-1-.09-.94.68,0,.42,0,.83,0,1.25,0,.71-.12.79-.71.47a7.56,7.56,0,0,1-3.58-4.19,4,4,0,0,1-.38-1.7A9.84,9.84,0,0,1,47.89,142.6Z"/><path class="cls-15" d="M55.37,147.11c-2.45.2-3.74-2.54-2.75-4.67a2.62,2.62,0,0,1,2.66-1.61,3,3,0,0,1,2.37,2.73,3.47,3.47,0,0,1-1.27,3.13c-.29.33-.55.27-.78-.06s-.37-.58-.55-.88a.87.87,0,0,1,0-.93.89.89,0,0,0-.14-1.14.82.82,0,0,0-1-.11,1.22,1.22,0,0,0-.52,1.13.48.48,0,0,0,.48.51c.92-.07,1.31.53,1.61,1.27a1.12,1.12,0,0,1,.12.35C55.57,147,55.47,147.05,55.37,147.11Z"/><path class="cls-16" d="M55.75,151.6c-.62,0-.92.55-1.41.77-.28.12-.56.49-.82.34s-.1-.57-.11-.87c0-.77,0-1.54,0-2.31,0-.23-.16-.59.18-.67s.88-.11,1,.17c.26.58.77.52,1.17.73C55.84,150.37,56.17,151,55.75,151.6Z"/><path class="cls-8" d="M55.37,146.61a1.08,1.08,0,0,1-.22-.32,1,1,0,0,0-1.19-.85c-.47.06-.75-.27-.83-.73s.37-1.35.75-1.41.89-.15,1.22.29a1.1,1.1,0,0,1,.08,1.34c-.21.31-.14.44,0,.72a7.49,7.49,0,0,1,.48.81c.16.43.4.44.72.23-.21.48-.69.24-1,.42l.12-.25C55.5,146.75,55.48,146.65,55.37,146.61Z"/><path class="cls-11" d="M56.15,150c.32,0,.65-.09.87.26a.34.34,0,0,1,.08.29,3.11,3.11,0,0,0-.07,1.71,2.37,2.37,0,0,1,0,.84,1.53,1.53,0,0,0,0,.9c0,.25.08.5-.14.7s-.55-.07-.82.19c0-.45-.32-.81-.06-1.27s0-.93.17-1.33,0-.5-.18-.71A2.39,2.39,0,0,1,56.15,150Z"/><path class="cls-11" d="M57,150.51v-.22c.08-.13.13-.29.32-.28s.16.17.16.29c0,1,0,2,0,3.07a.41.41,0,0,1-.23.36c-.33,0-.16-.32-.25-.49a8.85,8.85,0,0,1,0-1A4.06,4.06,0,0,0,57,150.51Z"/><path class="cls-12" d="M61.46,140.65h.16a5.4,5.4,0,0,1,.62,1.93,8.83,8.83,0,0,1,0,1.36,4.22,4.22,0,0,1,0,.87c-.24.24,0,.64-.27.87a.4.4,0,0,1-.26-.41c.15-.13.11-.31.12-.48a.75.75,0,0,1,.07-.36,3.75,3.75,0,0,0,0-1.6,1.53,1.53,0,0,1,0-.3,1.69,1.69,0,0,0-.23-.93C61.59,141.27,61.26,141,61.46,140.65Z"/><path class="cls-11" d="M58.41,149.89l.19,0a2.42,2.42,0,0,0,.78-.57c.29-.13.45-.48.79-.51a.25.25,0,0,1,.18.19,12.06,12.06,0,0,1-1.74,1.45c-.08.06-.23.1-.28,0A.51.51,0,0,1,58.41,149.89Z"/><path class="cls-11" d="M57.51,154c.11.35-.13.65-.13,1a.36.36,0,0,1-.4.38c-.27-.06-.07-.31-.08-.48.17-.31,0-.66.13-1A.37.37,0,0,1,57.51,154Z"/><path class="cls-5" d="M56.15,150c-.16.51.1,1.07-.15,1.58h-.25v-1.84C56,149.74,55.81,150.28,56.15,150Z"/><path class="cls-11" d="M60.35,149l-.17-.18c-.06-.16,0-.27.09-.4a1.35,1.35,0,0,1,.3-.4c.21-.06.23-.42.51-.35l.13.13A3.44,3.44,0,0,1,60.35,149Z"/><path class="cls-12" d="M57.13,149.1c.26,0,.4.05.38.32s-.12.41-.18.29c-.16-.31-.59,0-.62-.3S56.91,149.05,57.13,149.1Z"/><path class="cls-5" d="M57.51,154a.45.45,0,0,0-.45,0,.15.15,0,0,1-.21,0,.62.62,0,0,1,0-.82c.15-.09.2.07.29.13s-.18.36.11.42Z"/><path class="cls-5" d="M47.89,142.6v2.17A4.1,4.1,0,0,1,47.89,142.6Z"/><path class="cls-12" d="M62.23,144v-1.38a2.93,2.93,0,0,1,.11,1.38Q62.29,144,62.23,144Z"/><path class="cls-5" d="M56.85,154h.21c0,.3.13.65-.16.91v-.18Z"/><path class="cls-12" d="M62.23,144h.12a1.54,1.54,0,0,1-.1.85Z"/><path class="cls-17" d="M69.38,153.57c-.06-.33.1-.42.42-.4a.45.45,0,0,1,.49.52c0,.37-.23.44-.54.46S69.38,153.87,69.38,153.57Z"/><path class="cls-17" d="M66.17,154.44c0-.29,0-.57,0-.85s0-.44.32-.42.47.09.47.4q0,.88,0,1.77c0,.32-.23.37-.48.38s-.31-.2-.3-.43Z"/><path class="cls-18" d="M52.68,137.12c1.29-.88,4.35-.76,5.32.24A8,8,0,0,0,52.68,137.12Z"/><path class="cls-5" d="M48.14,142.76a5.5,5.5,0,0,1,.36-1.38c.19.11.1.3.14.46a9.54,9.54,0,0,0-.24,2.77c-.13.15.13.47-.21.53l0-.26A8.84,8.84,0,0,1,48.14,142.76Z"/><path class="cls-5" d="M61.46,140.65l.26.92a.2.2,0,0,1,0,.28,3.18,3.18,0,0,1-.67-1.48C61.32,140.32,61.32,140.58,61.46,140.65Z"/><path class="cls-5" d="M60.33,148.45l-.15.35-.74.57c-.12,0-.15,0-.13-.13l1-1.05A.2.2,0,0,1,60.33,148.45Z"/><path class="cls-5" d="M49.94,139c0,.58-.51.8-.69,1.2a.17.17,0,0,1-.16,0c-.09-.05-.07-.15,0-.23A2.62,2.62,0,0,1,49.94,139Z"/><path class="cls-5" d="M61.08,147.65c-.18.12-.24.39-.51.39q-.06,0,0-.09s0,0,0,0l.65-1.12C61.36,147.19,61.13,147.4,61.08,147.65Z"/><path class="cls-5" d="M61.71,141.85v-.28a3,3,0,0,1,.23.94c-.14.26.17.59-.13.82A3.9,3.9,0,0,1,61.71,141.85Z"/><path class="cls-5" d="M59.31,149.24l.13.13c-.24.23-.43.58-.84.5C58.74,149.55,59.07,149.45,59.31,149.24Z"/><path class="cls-5" d="M48.14,142.76v2.12A3.65,3.65,0,0,1,48.14,142.76Z"/><path class="cls-5" d="M48.64,141.84c-.14-.13-.1-.3-.14-.46l.21-.63.15.05A2.37,2.37,0,0,1,48.64,141.84Z"/><path class="cls-5" d="M48.42,144.72a2.06,2.06,0,0,1,.12.91c-.22,0-.42-.06-.37-.37C48.42,145.16,48.27,144.87,48.42,144.72Z"/><path class="cls-5" d="M62,144.49l0,.38c-.32-.14-.12-.39-.12-.6v-.85a.12.12,0,0,1,.19.05A3.18,3.18,0,0,1,62,144.49Z"/><path class="cls-5" d="M61.83,144.27c0,.2,0,.43.12.6s.08.41-.23.39A2.08,2.08,0,0,1,61.83,144.27Z"/><path class="cls-5" d="M60.43,139.44c-.33-.05-.36-.24-.43-.47C60.27,139,60.37,139.15,60.43,139.44Z"/><path class="cls-19" d="M50.34,148.8c-.25.09-.32-.09-.44-.3.3-.07.37.11.42.32Z"/><path class="cls-20" d="M50.32,148.82c.17,0,.32.08.35.28,0,0-.07.12-.1.11a.28.28,0,0,1-.23-.41Z"/><path class="cls-5" d="M62,143.42h-.14a.06.06,0,0,1,0-.09c.1-.26-.09-.58.13-.82l0,.25A.84.84,0,0,1,62,143.42Z"/><path class="cls-5" d="M48.42,144.72c-.1.17.11.5-.25.54l0-.12c.18-.13,0-.41.21-.53A.09.09,0,0,1,48.42,144.72Z"/><path class="cls-5" d="M50.11,139a.45.45,0,0,1,.36-.33C50.43,139,50.3,139,50.11,139Z"/><path class="cls-5" d="M60.58,147.91a.53.53,0,0,1,0,.13l-.24.41v-.26Z"/><path class="cls-21" d="M49.27,147.28c-.19,0-.35-.11-.31-.22s.19-.05.27.05A.39.39,0,0,1,49.27,147.28Z"/><path class="cls-5" d="M55.37,146.61c.06-.1.13-.09.19,0a.16.16,0,0,1-.07.26A.23.23,0,0,1,55.37,146.61Z"/><path class="cls-5" d="M57,150.51c.08,0,.2,0,.2.09a4.42,4.42,0,0,1-.08,1.66.2.2,0,0,1-.28,0C56.78,151.68,56.52,151.06,57,150.51Z"/><path class="cls-5" d="M56.86,152.28l.28,0a2.33,2.33,0,0,0,0,1.05l-.29-.13Z"/><path class="cls-5" d="M62,143.42v-.66a2.57,2.57,0,0,1,0,1.73Z"/></g></g></svg>